<svg viewBox="0 0 300 400" xmlns="http://www.w3.org/2000/svg" xmlns:xlink="http://www.w3.org/1999/xlink" width="300.000000" height="400.000000" fill="none" customFrame="#000000">
	<defs>
		<clipPath id="clipPath_3">
			<rect width="217.000000" height="370.000000" x="42.000000" y="15.000000" fill="rgb(255,255,255)" />
		</clipPath>
	</defs>
	<rect id="Frame 2" width="300.000000" height="400.000000" x="0.000000" y="0.000000" />
	<g id="Group 1" customFrame="url(#clipPath_3)">
		<rect id="Group 1" width="217.000000" height="370.000000" x="42.000000" y="15.000000" />
		<path id="Vector 6" d="M88.9548 43.7438C70.0609 44.9669 44.869 43.7438 44.869 37.0165C44.869 30.2893 51.919 32.8305 94.553 28.4545C125.734 25.2541 191.019 15 211.415 15C245.005 29.0661 252.002 21.1157 249.203 38.2397C247.185 50.5879 229.61 32.7355 171.528 37.0165C179.226 51.6942 134.44 57.1983 88.9548 73.7107C102.95 92.6694 94.553 86.5537 102.95 169.727C99.4514 172.785 95.9525 172.174 90.3543 167.893C89.0455 147.075 83.2996 112.862 79.8577 98.7851C74.0982 75.2304 69.9754 77.0157 68.6613 65.1488C74.2595 60.2562 83.3566 70.6529 83.3566 70.6529C83.3566 70.6529 131.641 44.9669 134.44 37.0165C128.842 38.2397 107.849 42.5207 88.9548 43.7438Z" fill="rgb(0,0,0)" fill-rule="evenodd" />
		<path id="Vector 6" d="M88.9548 43.7438C107.849 42.5207 128.842 38.2397 134.44 37.0165C131.641 44.9669 83.3566 70.6529 83.3566 70.6529C83.3566 70.6529 74.2595 60.2562 68.6613 65.1488C69.9754 77.0157 74.0982 75.2304 79.8577 98.7851C83.2996 112.862 89.0455 147.075 90.3543 167.893C95.9525 172.174 99.4514 172.785 102.95 169.727C94.553 86.5537 102.95 92.6694 88.9548 73.7107C134.44 57.1983 179.226 51.6942 171.528 37.0165C229.61 32.7355 247.185 50.5879 249.203 38.2397C252.002 21.1157 245.005 29.0661 211.415 15C191.019 15 125.734 25.2541 94.553 28.4545C51.919 32.8305 44.869 30.2893 44.869 37.0165C44.869 43.7438 70.0609 44.9669 88.9548 43.7438ZM134.44 80.438C156.133 77.3801 170.129 69.4297 186.923 74.3223C198.819 83.4959 193.221 149.545 184.124 153.826C175.027 158.107 134.44 156.884 134.44 153.826C134.44 150.769 175.727 137.926 175.727 116.521C175.727 95.1157 162.081 101.843 145.462 101.843C128.842 101.843 110.473 111.628 110.473 116.521C110.473 121.413 159.238 113.921 158.932 125.083C158.626 136.244 113.447 147.711 109.248 161.165C105.05 174.62 130.941 170.339 154.734 170.339C178.526 170.339 188.323 178.289 198.12 170.339C207.916 162.388 200.744 147.864 207.916 125.083C215.089 102.302 226.81 83.4959 226.81 83.4959C226.81 83.4959 222.612 65.1488 193.221 56.5868C160.507 54.2934 156.133 74.3223 99.4514 77.3802C101.551 88.3884 112.747 83.4959 134.44 80.438ZM84.0563 220.488C93.1534 223.545 103.65 234.554 103.65 240.058C103.65 245.562 93.1533 263.909 93.1533 263.909C93.1533 263.909 100.851 260.851 103.65 260.851C106.449 260.851 115.371 268.649 112.747 276.752C110.123 284.855 99.4513 288.372 94.553 290.818C93.1533 288.372 97.3521 279.81 99.4513 274.917C97.3521 276.752 93.1533 278.587 93.1533 278.587L79.8577 288.372C79.8577 288.372 46.2685 284.091 49.7674 271.859C53.966 267.578 77.0586 277.364 79.8577 270.636C81.5987 266.452 79.8577 254.124 67.2617 240.058C67.2617 231.496 74.9593 223.545 84.0563 220.488ZM79.8577 288.372C79.8577 288.372 81.2572 309.777 79.8577 312.223C78.4581 314.669 77.0586 315.893 73.5597 318.95C75.659 315.281 77.0586 314.669 77.0586 307.331C77.0586 307.331 57.4649 335.463 52.5665 337.298C47.668 339.132 39.4457 340.355 42.7696 344.636C46.0936 348.917 59.5642 353.198 67.2617 352.587C70.0609 344.025 79.8577 334.24 79.8577 334.24C79.8577 334.24 77.0586 356.256 77.0586 369.099C77.0586 381.942 84.7559 385 87.5551 385C90.3543 385 95.9524 378.273 95.9524 362.372C95.9524 346.471 94.553 337.298 94.553 314.058C102.95 305.496 110.648 293.264 110.648 293.264C110.648 293.264 99.4513 298.769 95.9524 303.05C93.1533 298.157 93.1533 278.587 93.1533 278.587M151.419 231.927C153.518 230.704 156.483 227.826 159.632 227.215C162.781 226.603 164.88 229.508 164.53 233.331C164.181 237.153 158.932 238.07 158.232 242.504C157.533 246.938 160.332 250.455 160.332 250.455C160.332 250.455 175.027 238.835 175.027 235.165C175.027 231.496 167.33 225.992 167.33 223.545C167.33 221.099 183.424 207.033 186.923 207.645C190.422 208.256 196.72 224.769 196.72 228.438C196.72 232.107 184.124 240.058 184.124 246.174C191.822 245.562 206.867 240.364 218.413 243.727C229.959 247.091 246.754 255.347 230.309 259.628C213.865 263.909 203.018 252.289 164.53 262.686C126.043 273.083 111.348 265.744 112.747 258.405C114.147 251.066 140.038 256.57 150.535 254.124C146.336 248.62 143.537 247.244 143.537 242.504C143.537 237.764 149.32 233.15 151.419 231.927ZM154.034 276.752C151.235 282.868 102.25 318.95 102.25 323.843C102.25 328.736 117.121 324.455 143.537 323.843C169.954 323.231 170.828 318.186 192.521 320.785C214.214 323.384 209.316 328.43 225.411 329.959C241.506 331.488 238.707 325.066 259 325.066C247.454 318.339 218.413 307.331 189.023 307.331C159.632 307.331 143.012 319.103 139.339 312.223C154.034 299.38 164.53 285.314 169.429 279.81C174.327 274.306 179.051 268.955 176.427 266.355C173.802 263.756 161.731 266.05 156.833 268.19C151.934 270.331 156.833 270.636 154.034 276.752ZM205.117 312.835C214.914 328.735 261.099 326.289 242.905 318.339C224.711 310.388 190.422 287.76 175.027 276.14C159.632 264.521 157.708 269.107 165.93 279.198C174.152 289.289 195.321 296.934 205.117 312.835ZM145.637 373.38C147.736 381.942 156.133 381.33 157.533 371.545C158.932 361.76 140.038 339.744 136.539 337.909C133.041 336.074 124.643 339.132 124.643 342.802C124.643 346.471 143.537 364.818 145.637 373.38ZM190.422 330.57C203.018 330.57 212.115 337.909 219.813 345.859C215.614 355.645 207.916 356.256 204.418 364.207C200.919 372.157 203.718 380.107 193.921 380.107C184.124 380.107 166.63 377.661 148.436 383.165C148.436 383.165 135.84 378.273 139.339 373.992C142.837 369.711 181.325 362.983 188.323 366.653C190.422 357.479 203.018 347.694 197.42 344.636C191.822 341.578 155.433 339.132 142.837 348.917C130.241 358.702 125.518 344.942 135.84 340.355C146.161 335.769 177.826 330.57 190.422 330.57Z" fill-rule="evenodd" stroke="rgb(0,0,0)" stroke-opacity="0" stroke-width="1.000000" />
		<path id="Vector 6" d="M134.44 80.438C112.747 83.4959 101.551 88.3884 99.4514 77.3802C156.133 74.3223 160.507 54.2934 193.221 56.5868C222.612 65.1488 226.81 83.4959 226.81 83.4959C226.81 83.4959 215.089 102.302 207.916 125.083C200.744 147.864 207.916 162.388 198.12 170.339C188.323 178.289 178.526 170.339 154.734 170.339C130.941 170.339 105.05 174.62 109.248 161.165C113.447 147.711 158.626 136.244 158.932 125.083C159.238 113.921 110.473 121.413 110.473 116.521C110.473 111.628 128.842 101.843 145.462 101.843C162.081 101.843 175.727 95.1157 175.727 116.521C175.727 137.926 134.44 150.769 134.44 153.826C134.44 156.884 175.027 158.107 184.124 153.826C193.221 149.545 198.819 83.4959 186.923 74.3223C170.129 69.4297 156.133 77.3801 134.44 80.438Z" fill="rgb(0,0,0)" fill-rule="evenodd" />
		<path id="Vector 6" d="M134.44 80.438C112.747 83.4959 101.551 88.3884 99.4514 77.3802C156.133 74.3223 160.507 54.2934 193.221 56.5868C222.612 65.1488 226.81 83.4959 226.81 83.4959C226.81 83.4959 215.089 102.302 207.916 125.083C200.744 147.864 207.916 162.388 198.12 170.339C188.323 178.289 178.526 170.339 154.734 170.339C130.941 170.339 105.05 174.62 109.248 161.165C113.447 147.711 158.626 136.244 158.932 125.083C159.238 113.921 110.473 121.413 110.473 116.521C110.473 111.628 128.842 101.843 145.462 101.843C162.081 101.843 175.727 95.1157 175.727 116.521C175.727 137.926 134.44 150.769 134.44 153.826C134.44 156.884 175.027 158.107 184.124 153.826C193.221 149.545 198.819 83.4959 186.923 74.3223C170.129 69.4297 156.133 77.3801 134.44 80.438Z" fill="rgb(0,0,0)" fill-rule="evenodd" />
		<path id="Vector 6" d="M88.9548 43.7438C107.849 42.5207 128.842 38.2397 134.44 37.0165C131.641 44.9669 83.3566 70.6529 83.3566 70.6529C83.3566 70.6529 74.2595 60.2562 68.6613 65.1488C69.9754 77.0157 74.0982 75.2304 79.8577 98.7851C83.2996 112.862 89.0455 147.075 90.3543 167.893C95.9525 172.174 99.4514 172.785 102.95 169.727C94.553 86.5537 102.95 92.6694 88.9548 73.7107C134.44 57.1983 179.226 51.6942 171.528 37.0165C229.61 32.7355 247.185 50.5879 249.203 38.2397C252.002 21.1157 245.005 29.0661 211.415 15C191.019 15 125.734 25.2541 94.553 28.4545C51.919 32.8305 44.869 30.2893 44.869 37.0165C44.869 43.7438 70.0609 44.9669 88.9548 43.7438ZM134.44 80.438C156.133 77.3801 170.129 69.4297 186.923 74.3223C198.819 83.4959 193.221 149.545 184.124 153.826C175.027 158.107 134.44 156.884 134.44 153.826C134.44 150.769 175.727 137.926 175.727 116.521C175.727 95.1157 162.081 101.843 145.462 101.843C128.842 101.843 110.473 111.628 110.473 116.521C110.473 121.413 159.238 113.921 158.932 125.083C158.626 136.244 113.447 147.711 109.248 161.165C105.05 174.62 130.941 170.339 154.734 170.339C178.526 170.339 188.323 178.289 198.12 170.339C207.916 162.388 200.744 147.864 207.916 125.083C215.089 102.302 226.81 83.4959 226.81 83.4959C226.81 83.4959 222.612 65.1488 193.221 56.5868C160.507 54.2934 156.133 74.3223 99.4514 77.3802C101.551 88.3884 112.747 83.4959 134.44 80.438ZM84.0563 220.488C93.1534 223.545 103.65 234.554 103.65 240.058C103.65 245.562 93.1533 263.909 93.1533 263.909C93.1533 263.909 100.851 260.851 103.65 260.851C106.449 260.851 115.371 268.649 112.747 276.752C110.123 284.855 99.4513 288.372 94.553 290.818C93.1533 288.372 97.3521 279.81 99.4513 274.917C97.3521 276.752 93.1533 278.587 93.1533 278.587L79.8577 288.372C79.8577 288.372 46.2685 284.091 49.7674 271.859C53.966 267.578 77.0586 277.364 79.8577 270.636C81.5987 266.452 79.8577 254.124 67.2617 240.058C67.2617 231.496 74.9593 223.545 84.0563 220.488ZM79.8577 288.372C79.8577 288.372 81.2572 309.777 79.8577 312.223C78.4581 314.669 77.0586 315.893 73.5597 318.95C75.659 315.281 77.0586 314.669 77.0586 307.331C77.0586 307.331 57.4649 335.463 52.5665 337.298C47.668 339.132 39.4457 340.355 42.7696 344.636C46.0936 348.917 59.5642 353.198 67.2617 352.587C70.0609 344.025 79.8577 334.24 79.8577 334.24C79.8577 334.24 77.0586 356.256 77.0586 369.099C77.0586 381.942 84.7559 385 87.5551 385C90.3543 385 95.9524 378.273 95.9524 362.372C95.9524 346.471 94.553 337.298 94.553 314.058C102.95 305.496 110.648 293.264 110.648 293.264C110.648 293.264 99.4513 298.769 95.9524 303.05C93.1533 298.157 93.1533 278.587 93.1533 278.587M151.419 231.927C153.518 230.704 156.483 227.826 159.632 227.215C162.781 226.603 164.88 229.508 164.53 233.331C164.181 237.153 158.932 238.07 158.232 242.504C157.533 246.938 160.332 250.455 160.332 250.455C160.332 250.455 175.027 238.835 175.027 235.165C175.027 231.496 167.33 225.992 167.33 223.545C167.33 221.099 183.424 207.033 186.923 207.645C190.422 208.256 196.72 224.769 196.72 228.438C196.72 232.107 184.124 240.058 184.124 246.174C191.822 245.562 206.867 240.364 218.413 243.727C229.959 247.091 246.754 255.347 230.309 259.628C213.865 263.909 203.018 252.289 164.53 262.686C126.043 273.083 111.348 265.744 112.747 258.405C114.147 251.066 140.038 256.57 150.535 254.124C146.336 248.62 143.537 247.244 143.537 242.504C143.537 237.764 149.32 233.15 151.419 231.927ZM154.034 276.752C151.235 282.868 102.25 318.95 102.25 323.843C102.25 328.736 117.121 324.455 143.537 323.843C169.954 323.231 170.828 318.186 192.521 320.785C214.214 323.384 209.316 328.43 225.411 329.959C241.506 331.488 238.707 325.066 259 325.066C247.454 318.339 218.413 307.331 189.023 307.331C159.632 307.331 143.012 319.103 139.339 312.223C154.034 299.38 164.53 285.314 169.429 279.81C174.327 274.306 179.051 268.955 176.427 266.355C173.802 263.756 161.731 266.05 156.833 268.19C151.934 270.331 156.833 270.636 154.034 276.752ZM205.117 312.835C214.914 328.735 261.099 326.289 242.905 318.339C224.711 310.388 190.422 287.76 175.027 276.14C159.632 264.521 157.708 269.107 165.93 279.198C174.152 289.289 195.321 296.934 205.117 312.835ZM145.637 373.38C147.736 381.942 156.133 381.33 157.533 371.545C158.932 361.76 140.038 339.744 136.539 337.909C133.041 336.074 124.643 339.132 124.643 342.802C124.643 346.471 143.537 364.818 145.637 373.38ZM190.422 330.57C203.018 330.57 212.115 337.909 219.813 345.859C215.614 355.645 207.916 356.256 204.418 364.207C200.919 372.157 203.718 380.107 193.921 380.107C184.124 380.107 166.63 377.661 148.436 383.165C148.436 383.165 135.84 378.273 139.339 373.992C142.837 369.711 181.325 362.983 188.323 366.653C190.422 357.479 203.018 347.694 197.42 344.636C191.822 341.578 155.433 339.132 142.837 348.917C130.241 358.702 125.518 344.942 135.84 340.355C146.161 335.769 177.826 330.57 190.422 330.57Z" fill-rule="evenodd" stroke="rgb(0,0,0)" stroke-opacity="0" stroke-width="1.000000" />
		<path id="Vector 6" d="M67.2617 240.058C67.2617 231.496 74.9593 223.545 84.0563 220.488C93.1534 223.545 103.65 234.554 103.65 240.058C103.65 245.562 93.1533 263.909 93.1533 263.909C93.1533 263.909 100.851 260.851 103.65 260.851C106.449 260.851 115.371 268.649 112.747 276.752C110.123 284.855 99.4513 288.372 94.553 290.818C93.1533 288.372 97.3521 279.81 99.4513 274.917C97.3521 276.752 93.1533 278.587 93.1533 278.587L79.8577 288.372C79.8577 288.372 46.2685 284.091 49.7674 271.859C53.966 267.578 77.0586 277.364 79.8577 270.636C81.5987 266.452 79.8577 254.124 67.2617 240.058Z" fill="rgb(0,0,0)" fill-rule="evenodd" />
		<path id="Vector 6" d="M67.2617 240.058C67.2617 231.496 74.9593 223.545 84.0563 220.488C93.1534 223.545 103.65 234.554 103.65 240.058C103.65 245.562 93.1533 263.909 93.1533 263.909C93.1533 263.909 100.851 260.851 103.65 260.851C106.449 260.851 115.371 268.649 112.747 276.752C110.123 284.855 99.4513 288.372 94.553 290.818C93.1533 288.372 97.3521 279.81 99.4513 274.917C97.3521 276.752 93.1533 278.587 93.1533 278.587L79.8577 288.372C79.8577 288.372 46.2685 284.091 49.7674 271.859C53.966 267.578 77.0586 277.364 79.8577 270.636C81.5987 266.452 79.8577 254.124 67.2617 240.058Z" fill="rgb(222,74,74)" fill-rule="evenodd" />
		<path id="Vector 6" d="M88.9548 43.7438C107.849 42.5207 128.842 38.2397 134.44 37.0165C131.641 44.9669 83.3566 70.6529 83.3566 70.6529C83.3566 70.6529 74.2595 60.2562 68.6613 65.1488C69.9754 77.0157 74.0982 75.2304 79.8577 98.7851C83.2996 112.862 89.0455 147.075 90.3543 167.893C95.9525 172.174 99.4514 172.785 102.95 169.727C94.553 86.5537 102.95 92.6694 88.9548 73.7107C134.44 57.1983 179.226 51.6942 171.528 37.0165C229.61 32.7355 247.185 50.5879 249.203 38.2397C252.002 21.1157 245.005 29.0661 211.415 15C191.019 15 125.734 25.2541 94.553 28.4545C51.919 32.8305 44.869 30.2893 44.869 37.0165C44.869 43.7438 70.0609 44.9669 88.9548 43.7438ZM134.44 80.438C156.133 77.3801 170.129 69.4297 186.923 74.3223C198.819 83.4959 193.221 149.545 184.124 153.826C175.027 158.107 134.44 156.884 134.44 153.826C134.44 150.769 175.727 137.926 175.727 116.521C175.727 95.1157 162.081 101.843 145.462 101.843C128.842 101.843 110.473 111.628 110.473 116.521C110.473 121.413 159.238 113.921 158.932 125.083C158.626 136.244 113.447 147.711 109.248 161.165C105.05 174.62 130.941 170.339 154.734 170.339C178.526 170.339 188.323 178.289 198.12 170.339C207.916 162.388 200.744 147.864 207.916 125.083C215.089 102.302 226.81 83.4959 226.81 83.4959C226.81 83.4959 222.612 65.1488 193.221 56.5868C160.507 54.2934 156.133 74.3223 99.4514 77.3802C101.551 88.3884 112.747 83.4959 134.44 80.438ZM84.0563 220.488C93.1534 223.545 103.65 234.554 103.65 240.058C103.65 245.562 93.1533 263.909 93.1533 263.909C93.1533 263.909 100.851 260.851 103.65 260.851C106.449 260.851 115.371 268.649 112.747 276.752C110.123 284.855 99.4513 288.372 94.553 290.818C93.1533 288.372 97.3521 279.81 99.4513 274.917C97.3521 276.752 93.1533 278.587 93.1533 278.587L79.8577 288.372C79.8577 288.372 46.2685 284.091 49.7674 271.859C53.966 267.578 77.0586 277.364 79.8577 270.636C81.5987 266.452 79.8577 254.124 67.2617 240.058C67.2617 231.496 74.9593 223.545 84.0563 220.488ZM79.8577 288.372C79.8577 288.372 81.2572 309.777 79.8577 312.223C78.4581 314.669 77.0586 315.893 73.5597 318.95C75.659 315.281 77.0586 314.669 77.0586 307.331C77.0586 307.331 57.4649 335.463 52.5665 337.298C47.668 339.132 39.4457 340.355 42.7696 344.636C46.0936 348.917 59.5642 353.198 67.2617 352.587C70.0609 344.025 79.8577 334.24 79.8577 334.24C79.8577 334.24 77.0586 356.256 77.0586 369.099C77.0586 381.942 84.7559 385 87.5551 385C90.3543 385 95.9524 378.273 95.9524 362.372C95.9524 346.471 94.553 337.298 94.553 314.058C102.95 305.496 110.648 293.264 110.648 293.264C110.648 293.264 99.4513 298.769 95.9524 303.05C93.1533 298.157 93.1533 278.587 93.1533 278.587M151.419 231.927C153.518 230.704 156.483 227.826 159.632 227.215C162.781 226.603 164.88 229.508 164.53 233.331C164.181 237.153 158.932 238.07 158.232 242.504C157.533 246.938 160.332 250.455 160.332 250.455C160.332 250.455 175.027 238.835 175.027 235.165C175.027 231.496 167.33 225.992 167.33 223.545C167.33 221.099 183.424 207.033 186.923 207.645C190.422 208.256 196.72 224.769 196.72 228.438C196.72 232.107 184.124 240.058 184.124 246.174C191.822 245.562 206.867 240.364 218.413 243.727C229.959 247.091 246.754 255.347 230.309 259.628C213.865 263.909 203.018 252.289 164.53 262.686C126.043 273.083 111.348 265.744 112.747 258.405C114.147 251.066 140.038 256.57 150.535 254.124C146.336 248.62 143.537 247.244 143.537 242.504C143.537 237.764 149.32 233.15 151.419 231.927ZM154.034 276.752C151.235 282.868 102.25 318.95 102.25 323.843C102.25 328.736 117.121 324.455 143.537 323.843C169.954 323.231 170.828 318.186 192.521 320.785C214.214 323.384 209.316 328.43 225.411 329.959C241.506 331.488 238.707 325.066 259 325.066C247.454 318.339 218.413 307.331 189.023 307.331C159.632 307.331 143.012 319.103 139.339 312.223C154.034 299.38 164.53 285.314 169.429 279.81C174.327 274.306 179.051 268.955 176.427 266.355C173.802 263.756 161.731 266.05 156.833 268.19C151.934 270.331 156.833 270.636 154.034 276.752ZM205.117 312.835C214.914 328.735 261.099 326.289 242.905 318.339C224.711 310.388 190.422 287.76 175.027 276.14C159.632 264.521 157.708 269.107 165.93 279.198C174.152 289.289 195.321 296.934 205.117 312.835ZM145.637 373.38C147.736 381.942 156.133 381.33 157.533 371.545C158.932 361.76 140.038 339.744 136.539 337.909C133.041 336.074 124.643 339.132 124.643 342.802C124.643 346.471 143.537 364.818 145.637 373.38ZM190.422 330.57C203.018 330.57 212.115 337.909 219.813 345.859C215.614 355.645 207.916 356.256 204.418 364.207C200.919 372.157 203.718 380.107 193.921 380.107C184.124 380.107 166.63 377.661 148.436 383.165C148.436 383.165 135.84 378.273 139.339 373.992C142.837 369.711 181.325 362.983 188.323 366.653C190.422 357.479 203.018 347.694 197.42 344.636C191.822 341.578 155.433 339.132 142.837 348.917C130.241 358.702 125.518 344.942 135.84 340.355C146.161 335.769 177.826 330.57 190.422 330.57Z" fill-rule="evenodd" stroke="rgb(0,0,0)" stroke-opacity="0" stroke-width="1.000000" />
		<path id="Vector 6" d="M84.0563 220.488C74.9593 223.545 67.2617 231.496 67.2617 240.058C79.8577 254.124 81.5987 266.452 79.8577 270.636C77.0586 277.364 53.966 267.578 49.7674 271.859C46.2685 284.091 79.8577 288.372 79.8577 288.372C79.8577 288.372 81.2572 309.777 79.8577 312.223C78.4581 314.669 77.0586 315.893 73.5597 318.95C75.659 315.281 77.0586 314.669 77.0586 307.331C77.0586 307.331 57.4649 335.463 52.5665 337.298C47.668 339.132 39.4457 340.355 42.7696 344.636C46.0936 348.917 59.5642 353.198 67.2617 352.587C70.0609 344.025 79.8577 334.24 79.8577 334.24C79.8577 334.24 77.0586 356.256 77.0586 369.099C77.0586 381.942 84.7559 385 87.5551 385C90.3543 385 95.9524 378.273 95.9524 362.372C95.9524 346.471 94.553 337.298 94.553 314.058C102.95 305.496 110.648 293.264 110.648 293.264C110.648 293.264 99.4513 298.769 95.9524 303.05C93.1533 298.157 93.1533 278.587 93.1533 278.587C93.1533 278.587 97.3521 276.752 99.4513 274.917C97.3521 279.81 93.1533 288.372 94.553 290.818C99.4513 288.372 110.123 284.855 112.747 276.752C115.371 268.649 106.449 260.851 103.65 260.851C100.851 260.851 93.1533 263.909 93.1533 263.909C93.1533 263.909 103.65 245.562 103.65 240.058C103.65 234.554 93.1534 223.545 84.0563 220.488ZM67.2617 240.058C67.2617 231.496 74.9593 223.545 84.0563 220.488C93.1534 223.545 103.65 234.554 103.65 240.058C103.65 245.562 93.1533 263.909 93.1533 263.909C93.1533 263.909 100.851 260.851 103.65 260.851C106.449 260.851 115.371 268.649 112.747 276.752C110.123 284.855 99.4513 288.372 94.553 290.818C93.1533 288.372 97.3521 279.81 99.4513 274.917C97.3521 276.752 93.1533 278.587 93.1533 278.587L79.8577 288.372C79.8577 288.372 46.2685 284.091 49.7674 271.859C53.966 267.578 77.0586 277.364 79.8577 270.636C81.5987 266.452 79.8577 254.124 67.2617 240.058ZM79.8577 312.223C81.2572 309.777 79.8577 288.372 79.8577 288.372L93.1533 278.587C93.1533 278.587 93.1533 298.157 95.9524 303.05C99.4513 298.769 110.648 293.264 110.648 293.264C110.648 293.264 102.95 305.496 94.553 314.058C94.553 337.298 95.9524 346.471 95.9524 362.372C95.9524 378.273 90.3543 385 87.5551 385C84.7559 385 77.0586 381.942 77.0586 369.099C77.0586 356.256 79.8577 334.24 79.8577 334.24C79.8577 334.24 70.0609 344.025 67.2617 352.587C59.5642 353.198 46.0936 348.917 42.7696 344.636C39.4457 340.355 47.668 339.132 52.5665 337.298C57.4649 335.463 77.0586 307.331 77.0586 307.331C77.0586 314.669 75.659 315.281 73.5597 318.95C77.0586 315.893 78.4581 314.669 79.8577 312.223Z" fill="rgb(0,0,0)" fill-rule="evenodd" />
		<path id="Vector 6" d="M84.0563 220.488C74.9593 223.545 67.2617 231.496 67.2617 240.058C79.8577 254.124 81.5987 266.452 79.8577 270.636C77.0586 277.364 53.966 267.578 49.7674 271.859C46.2685 284.091 79.8577 288.372 79.8577 288.372C79.8577 288.372 81.2572 309.777 79.8577 312.223C78.4581 314.669 77.0586 315.893 73.5597 318.95C75.659 315.281 77.0586 314.669 77.0586 307.331C77.0586 307.331 57.4649 335.463 52.5665 337.298C47.668 339.132 39.4457 340.355 42.7696 344.636C46.0936 348.917 59.5642 353.198 67.2617 352.587C70.0609 344.025 79.8577 334.24 79.8577 334.24C79.8577 334.24 77.0586 356.256 77.0586 369.099C77.0586 381.942 84.7559 385 87.5551 385C90.3543 385 95.9524 378.273 95.9524 362.372C95.9524 346.471 94.553 337.298 94.553 314.058C102.95 305.496 110.648 293.264 110.648 293.264C110.648 293.264 99.4513 298.769 95.9524 303.05C93.1533 298.157 93.1533 278.587 93.1533 278.587C93.1533 278.587 97.3521 276.752 99.4513 274.917C97.3521 279.81 93.1533 288.372 94.553 290.818C99.4513 288.372 110.123 284.855 112.747 276.752C115.371 268.649 106.449 260.851 103.65 260.851C100.851 260.851 93.1533 263.909 93.1533 263.909C93.1533 263.909 103.65 245.562 103.65 240.058C103.65 234.554 93.1534 223.545 84.0563 220.488ZM67.2617 240.058C67.2617 231.496 74.9593 223.545 84.0563 220.488C93.1534 223.545 103.65 234.554 103.65 240.058C103.65 245.562 93.1533 263.909 93.1533 263.909C93.1533 263.909 100.851 260.851 103.65 260.851C106.449 260.851 115.371 268.649 112.747 276.752C110.123 284.855 99.4513 288.372 94.553 290.818C93.1533 288.372 97.3521 279.81 99.4513 274.917C97.3521 276.752 93.1533 278.587 93.1533 278.587L79.8577 288.372C79.8577 288.372 46.2685 284.091 49.7674 271.859C53.966 267.578 77.0586 277.364 79.8577 270.636C81.5987 266.452 79.8577 254.124 67.2617 240.058ZM79.8577 312.223C81.2572 309.777 79.8577 288.372 79.8577 288.372L93.1533 278.587C93.1533 278.587 93.1533 298.157 95.9524 303.05C99.4513 298.769 110.648 293.264 110.648 293.264C110.648 293.264 102.95 305.496 94.553 314.058C94.553 337.298 95.9524 346.471 95.9524 362.372C95.9524 378.273 90.3543 385 87.5551 385C84.7559 385 77.0586 381.942 77.0586 369.099C77.0586 356.256 79.8577 334.24 79.8577 334.24C79.8577 334.24 70.0609 344.025 67.2617 352.587C59.5642 353.198 46.0936 348.917 42.7696 344.636C39.4457 340.355 47.668 339.132 52.5665 337.298C57.4649 335.463 77.0586 307.331 77.0586 307.331C77.0586 314.669 75.659 315.281 73.5597 318.95C77.0586 315.893 78.4581 314.669 79.8577 312.223Z" fill="rgb(222,74,74)" fill-rule="evenodd" />
		<path id="Vector 6" d="M88.9548 43.7438C107.849 42.5207 128.842 38.2397 134.44 37.0165C131.641 44.9669 83.3566 70.6529 83.3566 70.6529C83.3566 70.6529 74.2595 60.2562 68.6613 65.1488C69.9754 77.0157 74.0982 75.2304 79.8577 98.7851C83.2996 112.862 89.0455 147.075 90.3543 167.893C95.9525 172.174 99.4514 172.785 102.95 169.727C94.553 86.5537 102.95 92.6694 88.9548 73.7107C134.44 57.1983 179.226 51.6942 171.528 37.0165C229.61 32.7355 247.185 50.5879 249.203 38.2397C252.002 21.1157 245.005 29.0661 211.415 15C191.019 15 125.734 25.2541 94.553 28.4545C51.919 32.8305 44.869 30.2893 44.869 37.0165C44.869 43.7438 70.0609 44.9669 88.9548 43.7438ZM134.44 80.438C156.133 77.3801 170.129 69.4297 186.923 74.3223C198.819 83.4959 193.221 149.545 184.124 153.826C175.027 158.107 134.44 156.884 134.44 153.826C134.44 150.769 175.727 137.926 175.727 116.521C175.727 95.1157 162.081 101.843 145.462 101.843C128.842 101.843 110.473 111.628 110.473 116.521C110.473 121.413 159.238 113.921 158.932 125.083C158.626 136.244 113.447 147.711 109.248 161.165C105.05 174.62 130.941 170.339 154.734 170.339C178.526 170.339 188.323 178.289 198.12 170.339C207.916 162.388 200.744 147.864 207.916 125.083C215.089 102.302 226.81 83.4959 226.81 83.4959C226.81 83.4959 222.612 65.1488 193.221 56.5868C160.507 54.2934 156.133 74.3223 99.4514 77.3802C101.551 88.3884 112.747 83.4959 134.44 80.438ZM84.0563 220.488C93.1534 223.545 103.65 234.554 103.65 240.058C103.65 245.562 93.1533 263.909 93.1533 263.909C93.1533 263.909 100.851 260.851 103.65 260.851C106.449 260.851 115.371 268.649 112.747 276.752C110.123 284.855 99.4513 288.372 94.553 290.818C93.1533 288.372 97.3521 279.81 99.4513 274.917C97.3521 276.752 93.1533 278.587 93.1533 278.587L79.8577 288.372C79.8577 288.372 46.2685 284.091 49.7674 271.859C53.966 267.578 77.0586 277.364 79.8577 270.636C81.5987 266.452 79.8577 254.124 67.2617 240.058C67.2617 231.496 74.9593 223.545 84.0563 220.488ZM79.8577 288.372C79.8577 288.372 81.2572 309.777 79.8577 312.223C78.4581 314.669 77.0586 315.893 73.5597 318.95C75.659 315.281 77.0586 314.669 77.0586 307.331C77.0586 307.331 57.4649 335.463 52.5665 337.298C47.668 339.132 39.4457 340.355 42.7696 344.636C46.0936 348.917 59.5642 353.198 67.2617 352.587C70.0609 344.025 79.8577 334.24 79.8577 334.24C79.8577 334.24 77.0586 356.256 77.0586 369.099C77.0586 381.942 84.7559 385 87.5551 385C90.3543 385 95.9524 378.273 95.9524 362.372C95.9524 346.471 94.553 337.298 94.553 314.058C102.95 305.496 110.648 293.264 110.648 293.264C110.648 293.264 99.4513 298.769 95.9524 303.05C93.1533 298.157 93.1533 278.587 93.1533 278.587M151.419 231.927C153.518 230.704 156.483 227.826 159.632 227.215C162.781 226.603 164.88 229.508 164.53 233.331C164.181 237.153 158.932 238.07 158.232 242.504C157.533 246.938 160.332 250.455 160.332 250.455C160.332 250.455 175.027 238.835 175.027 235.165C175.027 231.496 167.33 225.992 167.33 223.545C167.33 221.099 183.424 207.033 186.923 207.645C190.422 208.256 196.72 224.769 196.72 228.438C196.72 232.107 184.124 240.058 184.124 246.174C191.822 245.562 206.867 240.364 218.413 243.727C229.959 247.091 246.754 255.347 230.309 259.628C213.865 263.909 203.018 252.289 164.53 262.686C126.043 273.083 111.348 265.744 112.747 258.405C114.147 251.066 140.038 256.57 150.535 254.124C146.336 248.62 143.537 247.244 143.537 242.504C143.537 237.764 149.32 233.15 151.419 231.927ZM154.034 276.752C151.235 282.868 102.25 318.95 102.25 323.843C102.25 328.736 117.121 324.455 143.537 323.843C169.954 323.231 170.828 318.186 192.521 320.785C214.214 323.384 209.316 328.43 225.411 329.959C241.506 331.488 238.707 325.066 259 325.066C247.454 318.339 218.413 307.331 189.023 307.331C159.632 307.331 143.012 319.103 139.339 312.223C154.034 299.38 164.53 285.314 169.429 279.81C174.327 274.306 179.051 268.955 176.427 266.355C173.802 263.756 161.731 266.05 156.833 268.19C151.934 270.331 156.833 270.636 154.034 276.752ZM205.117 312.835C214.914 328.735 261.099 326.289 242.905 318.339C224.711 310.388 190.422 287.76 175.027 276.14C159.632 264.521 157.708 269.107 165.93 279.198C174.152 289.289 195.321 296.934 205.117 312.835ZM145.637 373.38C147.736 381.942 156.133 381.33 157.533 371.545C158.932 361.76 140.038 339.744 136.539 337.909C133.041 336.074 124.643 339.132 124.643 342.802C124.643 346.471 143.537 364.818 145.637 373.38ZM190.422 330.57C203.018 330.57 212.115 337.909 219.813 345.859C215.614 355.645 207.916 356.256 204.418 364.207C200.919 372.157 203.718 380.107 193.921 380.107C184.124 380.107 166.63 377.661 148.436 383.165C148.436 383.165 135.84 378.273 139.339 373.992C142.837 369.711 181.325 362.983 188.323 366.653C190.422 357.479 203.018 347.694 197.42 344.636C191.822 341.578 155.433 339.132 142.837 348.917C130.241 358.702 125.518 344.942 135.84 340.355C146.161 335.769 177.826 330.57 190.422 330.57Z" fill-rule="evenodd" stroke="rgb(0,0,0)" stroke-opacity="0" stroke-width="1.000000" />
		<path id="Vector 6" d="M79.8577 312.223C81.2572 309.777 79.8577 288.372 79.8577 288.372L93.1533 278.587C93.1533 278.587 93.1533 298.157 95.9524 303.05C99.4513 298.769 110.648 293.264 110.648 293.264C110.648 293.264 102.95 305.496 94.553 314.058C94.553 337.298 95.9524 346.471 95.9524 362.372C95.9524 378.273 90.3543 385 87.5551 385C84.7559 385 77.0586 381.942 77.0586 369.099C77.0586 356.256 79.8577 334.24 79.8577 334.24C79.8577 334.24 70.0609 344.025 67.2617 352.587C59.5642 353.198 46.0936 348.917 42.7696 344.636C39.4457 340.355 47.668 339.132 52.5665 337.298C57.4649 335.463 77.0586 307.331 77.0586 307.331C77.0586 314.669 75.659 315.281 73.5597 318.95C77.0586 315.893 78.4581 314.669 79.8577 312.223Z" fill="rgb(0,0,0)" fill-rule="evenodd" />
		<path id="Vector 6" d="M79.8577 312.223C81.2572 309.777 79.8577 288.372 79.8577 288.372L93.1533 278.587C93.1533 278.587 93.1533 298.157 95.9524 303.05C99.4513 298.769 110.648 293.264 110.648 293.264C110.648 293.264 102.95 305.496 94.553 314.058C94.553 337.298 95.9524 346.471 95.9524 362.372C95.9524 378.273 90.3543 385 87.5551 385C84.7559 385 77.0586 381.942 77.0586 369.099C77.0586 356.256 79.8577 334.24 79.8577 334.24C79.8577 334.24 70.0609 344.025 67.2617 352.587C59.5642 353.198 46.0936 348.917 42.7696 344.636C39.4457 340.355 47.668 339.132 52.5665 337.298C57.4649 335.463 77.0586 307.331 77.0586 307.331C77.0586 314.669 75.659 315.281 73.5597 318.95C77.0586 315.893 78.4581 314.669 79.8577 312.223Z" fill="rgb(222,74,74)" fill-rule="evenodd" />
		<path id="Vector 6" d="M88.9548 43.7438C107.849 42.5207 128.842 38.2397 134.44 37.0165C131.641 44.9669 83.3566 70.6529 83.3566 70.6529C83.3566 70.6529 74.2595 60.2562 68.6613 65.1488C69.9754 77.0157 74.0982 75.2304 79.8577 98.7851C83.2996 112.862 89.0455 147.075 90.3543 167.893C95.9525 172.174 99.4514 172.785 102.95 169.727C94.553 86.5537 102.95 92.6694 88.9548 73.7107C134.44 57.1983 179.226 51.6942 171.528 37.0165C229.61 32.7355 247.185 50.5879 249.203 38.2397C252.002 21.1157 245.005 29.0661 211.415 15C191.019 15 125.734 25.2541 94.553 28.4545C51.919 32.8305 44.869 30.2893 44.869 37.0165C44.869 43.7438 70.0609 44.9669 88.9548 43.7438ZM134.44 80.438C156.133 77.3801 170.129 69.4297 186.923 74.3223C198.819 83.4959 193.221 149.545 184.124 153.826C175.027 158.107 134.44 156.884 134.44 153.826C134.44 150.769 175.727 137.926 175.727 116.521C175.727 95.1157 162.081 101.843 145.462 101.843C128.842 101.843 110.473 111.628 110.473 116.521C110.473 121.413 159.238 113.921 158.932 125.083C158.626 136.244 113.447 147.711 109.248 161.165C105.05 174.62 130.941 170.339 154.734 170.339C178.526 170.339 188.323 178.289 198.12 170.339C207.916 162.388 200.744 147.864 207.916 125.083C215.089 102.302 226.81 83.4959 226.81 83.4959C226.81 83.4959 222.612 65.1488 193.221 56.5868C160.507 54.2934 156.133 74.3223 99.4514 77.3802C101.551 88.3884 112.747 83.4959 134.44 80.438ZM84.0563 220.488C93.1534 223.545 103.65 234.554 103.65 240.058C103.65 245.562 93.1533 263.909 93.1533 263.909C93.1533 263.909 100.851 260.851 103.65 260.851C106.449 260.851 115.371 268.649 112.747 276.752C110.123 284.855 99.4513 288.372 94.553 290.818C93.1533 288.372 97.3521 279.81 99.4513 274.917C97.3521 276.752 93.1533 278.587 93.1533 278.587L79.8577 288.372C79.8577 288.372 46.2685 284.091 49.7674 271.859C53.966 267.578 77.0586 277.364 79.8577 270.636C81.5987 266.452 79.8577 254.124 67.2617 240.058C67.2617 231.496 74.9593 223.545 84.0563 220.488ZM79.8577 288.372C79.8577 288.372 81.2572 309.777 79.8577 312.223C78.4581 314.669 77.0586 315.893 73.5597 318.95C75.659 315.281 77.0586 314.669 77.0586 307.331C77.0586 307.331 57.4649 335.463 52.5665 337.298C47.668 339.132 39.4457 340.355 42.7696 344.636C46.0936 348.917 59.5642 353.198 67.2617 352.587C70.0609 344.025 79.8577 334.24 79.8577 334.24C79.8577 334.24 77.0586 356.256 77.0586 369.099C77.0586 381.942 84.7559 385 87.5551 385C90.3543 385 95.9524 378.273 95.9524 362.372C95.9524 346.471 94.553 337.298 94.553 314.058C102.95 305.496 110.648 293.264 110.648 293.264C110.648 293.264 99.4513 298.769 95.9524 303.05C93.1533 298.157 93.1533 278.587 93.1533 278.587M151.419 231.927C153.518 230.704 156.483 227.826 159.632 227.215C162.781 226.603 164.88 229.508 164.53 233.331C164.181 237.153 158.932 238.07 158.232 242.504C157.533 246.938 160.332 250.455 160.332 250.455C160.332 250.455 175.027 238.835 175.027 235.165C175.027 231.496 167.33 225.992 167.33 223.545C167.33 221.099 183.424 207.033 186.923 207.645C190.422 208.256 196.72 224.769 196.72 228.438C196.72 232.107 184.124 240.058 184.124 246.174C191.822 245.562 206.867 240.364 218.413 243.727C229.959 247.091 246.754 255.347 230.309 259.628C213.865 263.909 203.018 252.289 164.53 262.686C126.043 273.083 111.348 265.744 112.747 258.405C114.147 251.066 140.038 256.57 150.535 254.124C146.336 248.62 143.537 247.244 143.537 242.504C143.537 237.764 149.32 233.15 151.419 231.927ZM154.034 276.752C151.235 282.868 102.25 318.95 102.25 323.843C102.25 328.736 117.121 324.455 143.537 323.843C169.954 323.231 170.828 318.186 192.521 320.785C214.214 323.384 209.316 328.43 225.411 329.959C241.506 331.488 238.707 325.066 259 325.066C247.454 318.339 218.413 307.331 189.023 307.331C159.632 307.331 143.012 319.103 139.339 312.223C154.034 299.38 164.53 285.314 169.429 279.81C174.327 274.306 179.051 268.955 176.427 266.355C173.802 263.756 161.731 266.05 156.833 268.19C151.934 270.331 156.833 270.636 154.034 276.752ZM205.117 312.835C214.914 328.735 261.099 326.289 242.905 318.339C224.711 310.388 190.422 287.76 175.027 276.14C159.632 264.521 157.708 269.107 165.93 279.198C174.152 289.289 195.321 296.934 205.117 312.835ZM145.637 373.38C147.736 381.942 156.133 381.33 157.533 371.545C158.932 361.76 140.038 339.744 136.539 337.909C133.041 336.074 124.643 339.132 124.643 342.802C124.643 346.471 143.537 364.818 145.637 373.38ZM190.422 330.57C203.018 330.57 212.115 337.909 219.813 345.859C215.614 355.645 207.916 356.256 204.418 364.207C200.919 372.157 203.718 380.107 193.921 380.107C184.124 380.107 166.63 377.661 148.436 383.165C148.436 383.165 135.84 378.273 139.339 373.992C142.837 369.711 181.325 362.983 188.323 366.653C190.422 357.479 203.018 347.694 197.42 344.636C191.822 341.578 155.433 339.132 142.837 348.917C130.241 358.702 125.518 344.942 135.84 340.355C146.161 335.769 177.826 330.57 190.422 330.57Z" fill-rule="evenodd" stroke="rgb(0,0,0)" stroke-opacity="0" stroke-width="1.000000" />
		<path id="Vector 6" d="M151.419 231.927C149.32 233.15 143.537 237.764 143.537 242.504C143.537 247.244 146.336 248.62 150.535 254.124C140.038 256.57 114.147 251.066 112.747 258.405C111.348 265.744 126.043 273.083 164.53 262.686C203.018 252.289 213.865 263.909 230.309 259.628C246.754 255.347 229.959 247.091 218.413 243.727C206.867 240.364 191.822 245.562 184.124 246.174C184.124 240.058 196.72 232.107 196.72 228.438C196.72 224.769 190.422 208.256 186.923 207.645C183.424 207.033 167.33 221.099 167.33 223.545C167.33 225.992 175.027 231.496 175.027 235.165C175.027 238.835 160.332 250.455 160.332 250.455C160.332 250.455 157.533 246.938 158.232 242.504C158.932 238.07 164.181 237.153 164.53 233.331C164.88 229.508 162.781 226.603 159.632 227.215C156.483 227.826 153.518 230.704 151.419 231.927Z" fill="rgb(0,0,0)" fill-rule="evenodd" />
		<path id="Vector 6" d="M151.419 231.927C149.32 233.15 143.537 237.764 143.537 242.504C143.537 247.244 146.336 248.62 150.535 254.124C140.038 256.57 114.147 251.066 112.747 258.405C111.348 265.744 126.043 273.083 164.53 262.686C203.018 252.289 213.865 263.909 230.309 259.628C246.754 255.347 229.959 247.091 218.413 243.727C206.867 240.364 191.822 245.562 184.124 246.174C184.124 240.058 196.72 232.107 196.72 228.438C196.72 224.769 190.422 208.256 186.923 207.645C183.424 207.033 167.33 221.099 167.33 223.545C167.33 225.992 175.027 231.496 175.027 235.165C175.027 238.835 160.332 250.455 160.332 250.455C160.332 250.455 157.533 246.938 158.232 242.504C158.932 238.07 164.181 237.153 164.53 233.331C164.88 229.508 162.781 226.603 159.632 227.215C156.483 227.826 153.518 230.704 151.419 231.927Z" fill="rgb(222,74,74)" fill-rule="evenodd" />
		<path id="Vector 6" d="M88.9548 43.7438C107.849 42.5207 128.842 38.2397 134.44 37.0165C131.641 44.9669 83.3566 70.6529 83.3566 70.6529C83.3566 70.6529 74.2595 60.2562 68.6613 65.1488C69.9754 77.0157 74.0982 75.2304 79.8577 98.7851C83.2996 112.862 89.0455 147.075 90.3543 167.893C95.9525 172.174 99.4514 172.785 102.95 169.727C94.553 86.5537 102.95 92.6694 88.9548 73.7107C134.44 57.1983 179.226 51.6942 171.528 37.0165C229.61 32.7355 247.185 50.5879 249.203 38.2397C252.002 21.1157 245.005 29.0661 211.415 15C191.019 15 125.734 25.2541 94.553 28.4545C51.919 32.8305 44.869 30.2893 44.869 37.0165C44.869 43.7438 70.0609 44.9669 88.9548 43.7438ZM134.44 80.438C156.133 77.3801 170.129 69.4297 186.923 74.3223C198.819 83.4959 193.221 149.545 184.124 153.826C175.027 158.107 134.44 156.884 134.44 153.826C134.44 150.769 175.727 137.926 175.727 116.521C175.727 95.1157 162.081 101.843 145.462 101.843C128.842 101.843 110.473 111.628 110.473 116.521C110.473 121.413 159.238 113.921 158.932 125.083C158.626 136.244 113.447 147.711 109.248 161.165C105.05 174.62 130.941 170.339 154.734 170.339C178.526 170.339 188.323 178.289 198.12 170.339C207.916 162.388 200.744 147.864 207.916 125.083C215.089 102.302 226.81 83.4959 226.81 83.4959C226.81 83.4959 222.612 65.1488 193.221 56.5868C160.507 54.2934 156.133 74.3223 99.4514 77.3802C101.551 88.3884 112.747 83.4959 134.44 80.438ZM84.0563 220.488C93.1534 223.545 103.65 234.554 103.65 240.058C103.65 245.562 93.1533 263.909 93.1533 263.909C93.1533 263.909 100.851 260.851 103.65 260.851C106.449 260.851 115.371 268.649 112.747 276.752C110.123 284.855 99.4513 288.372 94.553 290.818C93.1533 288.372 97.3521 279.81 99.4513 274.917C97.3521 276.752 93.1533 278.587 93.1533 278.587L79.8577 288.372C79.8577 288.372 46.2685 284.091 49.7674 271.859C53.966 267.578 77.0586 277.364 79.8577 270.636C81.5987 266.452 79.8577 254.124 67.2617 240.058C67.2617 231.496 74.9593 223.545 84.0563 220.488ZM79.8577 288.372C79.8577 288.372 81.2572 309.777 79.8577 312.223C78.4581 314.669 77.0586 315.893 73.5597 318.95C75.659 315.281 77.0586 314.669 77.0586 307.331C77.0586 307.331 57.4649 335.463 52.5665 337.298C47.668 339.132 39.4457 340.355 42.7696 344.636C46.0936 348.917 59.5642 353.198 67.2617 352.587C70.0609 344.025 79.8577 334.24 79.8577 334.24C79.8577 334.24 77.0586 356.256 77.0586 369.099C77.0586 381.942 84.7559 385 87.5551 385C90.3543 385 95.9524 378.273 95.9524 362.372C95.9524 346.471 94.553 337.298 94.553 314.058C102.95 305.496 110.648 293.264 110.648 293.264C110.648 293.264 99.4513 298.769 95.9524 303.05C93.1533 298.157 93.1533 278.587 93.1533 278.587M151.419 231.927C153.518 230.704 156.483 227.826 159.632 227.215C162.781 226.603 164.88 229.508 164.53 233.331C164.181 237.153 158.932 238.07 158.232 242.504C157.533 246.938 160.332 250.455 160.332 250.455C160.332 250.455 175.027 238.835 175.027 235.165C175.027 231.496 167.33 225.992 167.33 223.545C167.33 221.099 183.424 207.033 186.923 207.645C190.422 208.256 196.72 224.769 196.72 228.438C196.72 232.107 184.124 240.058 184.124 246.174C191.822 245.562 206.867 240.364 218.413 243.727C229.959 247.091 246.754 255.347 230.309 259.628C213.865 263.909 203.018 252.289 164.53 262.686C126.043 273.083 111.348 265.744 112.747 258.405C114.147 251.066 140.038 256.57 150.535 254.124C146.336 248.62 143.537 247.244 143.537 242.504C143.537 237.764 149.32 233.15 151.419 231.927ZM154.034 276.752C151.235 282.868 102.25 318.95 102.25 323.843C102.25 328.736 117.121 324.455 143.537 323.843C169.954 323.231 170.828 318.186 192.521 320.785C214.214 323.384 209.316 328.43 225.411 329.959C241.506 331.488 238.707 325.066 259 325.066C247.454 318.339 218.413 307.331 189.023 307.331C159.632 307.331 143.012 319.103 139.339 312.223C154.034 299.38 164.53 285.314 169.429 279.81C174.327 274.306 179.051 268.955 176.427 266.355C173.802 263.756 161.731 266.05 156.833 268.19C151.934 270.331 156.833 270.636 154.034 276.752ZM205.117 312.835C214.914 328.735 261.099 326.289 242.905 318.339C224.711 310.388 190.422 287.76 175.027 276.14C159.632 264.521 157.708 269.107 165.93 279.198C174.152 289.289 195.321 296.934 205.117 312.835ZM145.637 373.38C147.736 381.942 156.133 381.33 157.533 371.545C158.932 361.76 140.038 339.744 136.539 337.909C133.041 336.074 124.643 339.132 124.643 342.802C124.643 346.471 143.537 364.818 145.637 373.38ZM190.422 330.57C203.018 330.57 212.115 337.909 219.813 345.859C215.614 355.645 207.916 356.256 204.418 364.207C200.919 372.157 203.718 380.107 193.921 380.107C184.124 380.107 166.63 377.661 148.436 383.165C148.436 383.165 135.84 378.273 139.339 373.992C142.837 369.711 181.325 362.983 188.323 366.653C190.422 357.479 203.018 347.694 197.42 344.636C191.822 341.578 155.433 339.132 142.837 348.917C130.241 358.702 125.518 344.942 135.84 340.355C146.161 335.769 177.826 330.57 190.422 330.57Z" fill-rule="evenodd" stroke="rgb(0,0,0)" stroke-opacity="0" stroke-width="1.000000" />
		<path id="Vector 6" d="M154.034 276.752C156.833 270.636 151.934 270.331 156.833 268.19C161.731 266.05 173.802 263.756 176.427 266.355C179.051 268.955 174.327 274.306 169.429 279.81C164.53 285.314 154.034 299.38 139.339 312.223C143.012 319.103 159.632 307.331 189.023 307.331C218.413 307.331 247.454 318.339 259 325.066C238.707 325.066 241.506 331.488 225.411 329.959C209.316 328.43 214.214 323.384 192.521 320.785C170.828 318.186 169.954 323.231 143.537 323.843C117.121 324.455 102.25 328.736 102.25 323.843C102.25 318.95 151.235 282.868 154.034 276.752Z" fill="rgb(0,0,0)" fill-rule="evenodd" />
		<path id="Vector 6" d="M154.034 276.752C156.833 270.636 151.934 270.331 156.833 268.19C161.731 266.05 173.802 263.756 176.427 266.355C179.051 268.955 174.327 274.306 169.429 279.81C164.53 285.314 154.034 299.38 139.339 312.223C143.012 319.103 159.632 307.331 189.023 307.331C218.413 307.331 247.454 318.339 259 325.066C238.707 325.066 241.506 331.488 225.411 329.959C209.316 328.43 214.214 323.384 192.521 320.785C170.828 318.186 169.954 323.231 143.537 323.843C117.121 324.455 102.25 328.736 102.25 323.843C102.25 318.95 151.235 282.868 154.034 276.752Z" fill="rgb(222,74,74)" fill-rule="evenodd" />
		<path id="Vector 6" d="M88.9548 43.7438C107.849 42.5207 128.842 38.2397 134.44 37.0165C131.641 44.9669 83.3566 70.6529 83.3566 70.6529C83.3566 70.6529 74.2595 60.2562 68.6613 65.1488C69.9754 77.0157 74.0982 75.2304 79.8577 98.7851C83.2996 112.862 89.0455 147.075 90.3543 167.893C95.9525 172.174 99.4514 172.785 102.95 169.727C94.553 86.5537 102.95 92.6694 88.9548 73.7107C134.44 57.1983 179.226 51.6942 171.528 37.0165C229.61 32.7355 247.185 50.5879 249.203 38.2397C252.002 21.1157 245.005 29.0661 211.415 15C191.019 15 125.734 25.2541 94.553 28.4545C51.919 32.8305 44.869 30.2893 44.869 37.0165C44.869 43.7438 70.0609 44.9669 88.9548 43.7438ZM134.44 80.438C156.133 77.3801 170.129 69.4297 186.923 74.3223C198.819 83.4959 193.221 149.545 184.124 153.826C175.027 158.107 134.44 156.884 134.44 153.826C134.44 150.769 175.727 137.926 175.727 116.521C175.727 95.1157 162.081 101.843 145.462 101.843C128.842 101.843 110.473 111.628 110.473 116.521C110.473 121.413 159.238 113.921 158.932 125.083C158.626 136.244 113.447 147.711 109.248 161.165C105.05 174.62 130.941 170.339 154.734 170.339C178.526 170.339 188.323 178.289 198.12 170.339C207.916 162.388 200.744 147.864 207.916 125.083C215.089 102.302 226.81 83.4959 226.81 83.4959C226.81 83.4959 222.612 65.1488 193.221 56.5868C160.507 54.2934 156.133 74.3223 99.4514 77.3802C101.551 88.3884 112.747 83.4959 134.44 80.438ZM84.0563 220.488C93.1534 223.545 103.65 234.554 103.65 240.058C103.65 245.562 93.1533 263.909 93.1533 263.909C93.1533 263.909 100.851 260.851 103.65 260.851C106.449 260.851 115.371 268.649 112.747 276.752C110.123 284.855 99.4513 288.372 94.553 290.818C93.1533 288.372 97.3521 279.81 99.4513 274.917C97.3521 276.752 93.1533 278.587 93.1533 278.587L79.8577 288.372C79.8577 288.372 46.2685 284.091 49.7674 271.859C53.966 267.578 77.0586 277.364 79.8577 270.636C81.5987 266.452 79.8577 254.124 67.2617 240.058C67.2617 231.496 74.9593 223.545 84.0563 220.488ZM79.8577 288.372C79.8577 288.372 81.2572 309.777 79.8577 312.223C78.4581 314.669 77.0586 315.893 73.5597 318.95C75.659 315.281 77.0586 314.669 77.0586 307.331C77.0586 307.331 57.4649 335.463 52.5665 337.298C47.668 339.132 39.4457 340.355 42.7696 344.636C46.0936 348.917 59.5642 353.198 67.2617 352.587C70.0609 344.025 79.8577 334.24 79.8577 334.24C79.8577 334.24 77.0586 356.256 77.0586 369.099C77.0586 381.942 84.7559 385 87.5551 385C90.3543 385 95.9524 378.273 95.9524 362.372C95.9524 346.471 94.553 337.298 94.553 314.058C102.95 305.496 110.648 293.264 110.648 293.264C110.648 293.264 99.4513 298.769 95.9524 303.05C93.1533 298.157 93.1533 278.587 93.1533 278.587M151.419 231.927C153.518 230.704 156.483 227.826 159.632 227.215C162.781 226.603 164.88 229.508 164.53 233.331C164.181 237.153 158.932 238.07 158.232 242.504C157.533 246.938 160.332 250.455 160.332 250.455C160.332 250.455 175.027 238.835 175.027 235.165C175.027 231.496 167.33 225.992 167.33 223.545C167.33 221.099 183.424 207.033 186.923 207.645C190.422 208.256 196.72 224.769 196.72 228.438C196.72 232.107 184.124 240.058 184.124 246.174C191.822 245.562 206.867 240.364 218.413 243.727C229.959 247.091 246.754 255.347 230.309 259.628C213.865 263.909 203.018 252.289 164.53 262.686C126.043 273.083 111.348 265.744 112.747 258.405C114.147 251.066 140.038 256.57 150.535 254.124C146.336 248.62 143.537 247.244 143.537 242.504C143.537 237.764 149.32 233.15 151.419 231.927ZM154.034 276.752C151.235 282.868 102.25 318.95 102.25 323.843C102.25 328.736 117.121 324.455 143.537 323.843C169.954 323.231 170.828 318.186 192.521 320.785C214.214 323.384 209.316 328.43 225.411 329.959C241.506 331.488 238.707 325.066 259 325.066C247.454 318.339 218.413 307.331 189.023 307.331C159.632 307.331 143.012 319.103 139.339 312.223C154.034 299.38 164.53 285.314 169.429 279.81C174.327 274.306 179.051 268.955 176.427 266.355C173.802 263.756 161.731 266.05 156.833 268.19C151.934 270.331 156.833 270.636 154.034 276.752ZM205.117 312.835C214.914 328.735 261.099 326.289 242.905 318.339C224.711 310.388 190.422 287.76 175.027 276.14C159.632 264.521 157.708 269.107 165.93 279.198C174.152 289.289 195.321 296.934 205.117 312.835ZM145.637 373.38C147.736 381.942 156.133 381.33 157.533 371.545C158.932 361.76 140.038 339.744 136.539 337.909C133.041 336.074 124.643 339.132 124.643 342.802C124.643 346.471 143.537 364.818 145.637 373.38ZM190.422 330.57C203.018 330.57 212.115 337.909 219.813 345.859C215.614 355.645 207.916 356.256 204.418 364.207C200.919 372.157 203.718 380.107 193.921 380.107C184.124 380.107 166.63 377.661 148.436 383.165C148.436 383.165 135.84 378.273 139.339 373.992C142.837 369.711 181.325 362.983 188.323 366.653C190.422 357.479 203.018 347.694 197.42 344.636C191.822 341.578 155.433 339.132 142.837 348.917C130.241 358.702 125.518 344.942 135.84 340.355C146.161 335.769 177.826 330.57 190.422 330.57Z" fill-rule="evenodd" stroke="rgb(0,0,0)" stroke-opacity="0" stroke-width="1.000000" />
		<path id="Vector 6" d="M205.117 312.835C195.321 296.934 174.152 289.289 165.93 279.198C157.708 269.107 159.632 264.521 175.027 276.14C190.422 287.76 224.711 310.388 242.905 318.339C261.099 326.289 214.914 328.735 205.117 312.835Z" fill="rgb(0,0,0)" fill-rule="evenodd" />
		<path id="Vector 6" d="M205.117 312.835C195.321 296.934 174.152 289.289 165.93 279.198C157.708 269.107 159.632 264.521 175.027 276.14C190.422 287.76 224.711 310.388 242.905 318.339C261.099 326.289 214.914 328.735 205.117 312.835Z" fill="rgb(222,74,74)" fill-rule="evenodd" />
		<path id="Vector 6" d="M88.9548 43.7438C107.849 42.5207 128.842 38.2397 134.44 37.0165C131.641 44.9669 83.3566 70.6529 83.3566 70.6529C83.3566 70.6529 74.2595 60.2562 68.6613 65.1488C69.9754 77.0157 74.0982 75.2304 79.8577 98.7851C83.2996 112.862 89.0455 147.075 90.3543 167.893C95.9525 172.174 99.4514 172.785 102.95 169.727C94.553 86.5537 102.95 92.6694 88.9548 73.7107C134.44 57.1983 179.226 51.6942 171.528 37.0165C229.61 32.7355 247.185 50.5879 249.203 38.2397C252.002 21.1157 245.005 29.0661 211.415 15C191.019 15 125.734 25.2541 94.553 28.4545C51.919 32.8305 44.869 30.2893 44.869 37.0165C44.869 43.7438 70.0609 44.9669 88.9548 43.7438ZM134.44 80.438C156.133 77.3801 170.129 69.4297 186.923 74.3223C198.819 83.4959 193.221 149.545 184.124 153.826C175.027 158.107 134.44 156.884 134.44 153.826C134.44 150.769 175.727 137.926 175.727 116.521C175.727 95.1157 162.081 101.843 145.462 101.843C128.842 101.843 110.473 111.628 110.473 116.521C110.473 121.413 159.238 113.921 158.932 125.083C158.626 136.244 113.447 147.711 109.248 161.165C105.05 174.62 130.941 170.339 154.734 170.339C178.526 170.339 188.323 178.289 198.12 170.339C207.916 162.388 200.744 147.864 207.916 125.083C215.089 102.302 226.81 83.4959 226.81 83.4959C226.81 83.4959 222.612 65.1488 193.221 56.5868C160.507 54.2934 156.133 74.3223 99.4514 77.3802C101.551 88.3884 112.747 83.4959 134.44 80.438ZM84.0563 220.488C93.1534 223.545 103.65 234.554 103.65 240.058C103.65 245.562 93.1533 263.909 93.1533 263.909C93.1533 263.909 100.851 260.851 103.65 260.851C106.449 260.851 115.371 268.649 112.747 276.752C110.123 284.855 99.4513 288.372 94.553 290.818C93.1533 288.372 97.3521 279.81 99.4513 274.917C97.3521 276.752 93.1533 278.587 93.1533 278.587L79.8577 288.372C79.8577 288.372 46.2685 284.091 49.7674 271.859C53.966 267.578 77.0586 277.364 79.8577 270.636C81.5987 266.452 79.8577 254.124 67.2617 240.058C67.2617 231.496 74.9593 223.545 84.0563 220.488ZM79.8577 288.372C79.8577 288.372 81.2572 309.777 79.8577 312.223C78.4581 314.669 77.0586 315.893 73.5597 318.95C75.659 315.281 77.0586 314.669 77.0586 307.331C77.0586 307.331 57.4649 335.463 52.5665 337.298C47.668 339.132 39.4457 340.355 42.7696 344.636C46.0936 348.917 59.5642 353.198 67.2617 352.587C70.0609 344.025 79.8577 334.24 79.8577 334.24C79.8577 334.24 77.0586 356.256 77.0586 369.099C77.0586 381.942 84.7559 385 87.5551 385C90.3543 385 95.9524 378.273 95.9524 362.372C95.9524 346.471 94.553 337.298 94.553 314.058C102.95 305.496 110.648 293.264 110.648 293.264C110.648 293.264 99.4513 298.769 95.9524 303.05C93.1533 298.157 93.1533 278.587 93.1533 278.587M151.419 231.927C153.518 230.704 156.483 227.826 159.632 227.215C162.781 226.603 164.88 229.508 164.53 233.331C164.181 237.153 158.932 238.07 158.232 242.504C157.533 246.938 160.332 250.455 160.332 250.455C160.332 250.455 175.027 238.835 175.027 235.165C175.027 231.496 167.33 225.992 167.33 223.545C167.33 221.099 183.424 207.033 186.923 207.645C190.422 208.256 196.72 224.769 196.72 228.438C196.72 232.107 184.124 240.058 184.124 246.174C191.822 245.562 206.867 240.364 218.413 243.727C229.959 247.091 246.754 255.347 230.309 259.628C213.865 263.909 203.018 252.289 164.53 262.686C126.043 273.083 111.348 265.744 112.747 258.405C114.147 251.066 140.038 256.57 150.535 254.124C146.336 248.62 143.537 247.244 143.537 242.504C143.537 237.764 149.32 233.15 151.419 231.927ZM154.034 276.752C151.235 282.868 102.25 318.95 102.25 323.843C102.25 328.736 117.121 324.455 143.537 323.843C169.954 323.231 170.828 318.186 192.521 320.785C214.214 323.384 209.316 328.43 225.411 329.959C241.506 331.488 238.707 325.066 259 325.066C247.454 318.339 218.413 307.331 189.023 307.331C159.632 307.331 143.012 319.103 139.339 312.223C154.034 299.38 164.53 285.314 169.429 279.81C174.327 274.306 179.051 268.955 176.427 266.355C173.802 263.756 161.731 266.05 156.833 268.19C151.934 270.331 156.833 270.636 154.034 276.752ZM205.117 312.835C214.914 328.735 261.099 326.289 242.905 318.339C224.711 310.388 190.422 287.76 175.027 276.14C159.632 264.521 157.708 269.107 165.93 279.198C174.152 289.289 195.321 296.934 205.117 312.835ZM145.637 373.38C147.736 381.942 156.133 381.33 157.533 371.545C158.932 361.76 140.038 339.744 136.539 337.909C133.041 336.074 124.643 339.132 124.643 342.802C124.643 346.471 143.537 364.818 145.637 373.38ZM190.422 330.57C203.018 330.57 212.115 337.909 219.813 345.859C215.614 355.645 207.916 356.256 204.418 364.207C200.919 372.157 203.718 380.107 193.921 380.107C184.124 380.107 166.63 377.661 148.436 383.165C148.436 383.165 135.84 378.273 139.339 373.992C142.837 369.711 181.325 362.983 188.323 366.653C190.422 357.479 203.018 347.694 197.42 344.636C191.822 341.578 155.433 339.132 142.837 348.917C130.241 358.702 125.518 344.942 135.84 340.355C146.161 335.769 177.826 330.57 190.422 330.57Z" fill-rule="evenodd" stroke="rgb(0,0,0)" stroke-opacity="0" stroke-width="1.000000" />
		<path id="Vector 6" d="M145.637 373.38C143.537 364.818 124.643 346.471 124.643 342.802C124.643 339.132 133.041 336.074 136.539 337.909C140.038 339.744 158.932 361.76 157.533 371.545C156.133 381.33 147.736 381.942 145.637 373.38Z" fill="rgb(0,0,0)" fill-rule="evenodd" />
		<path id="Vector 6" d="M145.637 373.38C143.537 364.818 124.643 346.471 124.643 342.802C124.643 339.132 133.041 336.074 136.539 337.909C140.038 339.744 158.932 361.76 157.533 371.545C156.133 381.33 147.736 381.942 145.637 373.38Z" fill="rgb(222,74,74)" fill-rule="evenodd" />
		<path id="Vector 6" d="M88.9548 43.7438C107.849 42.5207 128.842 38.2397 134.44 37.0165C131.641 44.9669 83.3566 70.6529 83.3566 70.6529C83.3566 70.6529 74.2595 60.2562 68.6613 65.1488C69.9754 77.0157 74.0982 75.2304 79.8577 98.7851C83.2996 112.862 89.0455 147.075 90.3543 167.893C95.9525 172.174 99.4514 172.785 102.95 169.727C94.553 86.5537 102.95 92.6694 88.9548 73.7107C134.44 57.1983 179.226 51.6942 171.528 37.0165C229.61 32.7355 247.185 50.5879 249.203 38.2397C252.002 21.1157 245.005 29.0661 211.415 15C191.019 15 125.734 25.2541 94.553 28.4545C51.919 32.8305 44.869 30.2893 44.869 37.0165C44.869 43.7438 70.0609 44.9669 88.9548 43.7438ZM134.44 80.438C156.133 77.3801 170.129 69.4297 186.923 74.3223C198.819 83.4959 193.221 149.545 184.124 153.826C175.027 158.107 134.44 156.884 134.44 153.826C134.44 150.769 175.727 137.926 175.727 116.521C175.727 95.1157 162.081 101.843 145.462 101.843C128.842 101.843 110.473 111.628 110.473 116.521C110.473 121.413 159.238 113.921 158.932 125.083C158.626 136.244 113.447 147.711 109.248 161.165C105.05 174.62 130.941 170.339 154.734 170.339C178.526 170.339 188.323 178.289 198.12 170.339C207.916 162.388 200.744 147.864 207.916 125.083C215.089 102.302 226.81 83.4959 226.81 83.4959C226.81 83.4959 222.612 65.1488 193.221 56.5868C160.507 54.2934 156.133 74.3223 99.4514 77.3802C101.551 88.3884 112.747 83.4959 134.44 80.438ZM84.0563 220.488C93.1534 223.545 103.65 234.554 103.65 240.058C103.65 245.562 93.1533 263.909 93.1533 263.909C93.1533 263.909 100.851 260.851 103.65 260.851C106.449 260.851 115.371 268.649 112.747 276.752C110.123 284.855 99.4513 288.372 94.553 290.818C93.1533 288.372 97.3521 279.81 99.4513 274.917C97.3521 276.752 93.1533 278.587 93.1533 278.587L79.8577 288.372C79.8577 288.372 46.2685 284.091 49.7674 271.859C53.966 267.578 77.0586 277.364 79.8577 270.636C81.5987 266.452 79.8577 254.124 67.2617 240.058C67.2617 231.496 74.9593 223.545 84.0563 220.488ZM79.8577 288.372C79.8577 288.372 81.2572 309.777 79.8577 312.223C78.4581 314.669 77.0586 315.893 73.5597 318.95C75.659 315.281 77.0586 314.669 77.0586 307.331C77.0586 307.331 57.4649 335.463 52.5665 337.298C47.668 339.132 39.4457 340.355 42.7696 344.636C46.0936 348.917 59.5642 353.198 67.2617 352.587C70.0609 344.025 79.8577 334.24 79.8577 334.24C79.8577 334.24 77.0586 356.256 77.0586 369.099C77.0586 381.942 84.7559 385 87.5551 385C90.3543 385 95.9524 378.273 95.9524 362.372C95.9524 346.471 94.553 337.298 94.553 314.058C102.95 305.496 110.648 293.264 110.648 293.264C110.648 293.264 99.4513 298.769 95.9524 303.05C93.1533 298.157 93.1533 278.587 93.1533 278.587M151.419 231.927C153.518 230.704 156.483 227.826 159.632 227.215C162.781 226.603 164.88 229.508 164.53 233.331C164.181 237.153 158.932 238.07 158.232 242.504C157.533 246.938 160.332 250.455 160.332 250.455C160.332 250.455 175.027 238.835 175.027 235.165C175.027 231.496 167.33 225.992 167.33 223.545C167.33 221.099 183.424 207.033 186.923 207.645C190.422 208.256 196.72 224.769 196.72 228.438C196.72 232.107 184.124 240.058 184.124 246.174C191.822 245.562 206.867 240.364 218.413 243.727C229.959 247.091 246.754 255.347 230.309 259.628C213.865 263.909 203.018 252.289 164.53 262.686C126.043 273.083 111.348 265.744 112.747 258.405C114.147 251.066 140.038 256.57 150.535 254.124C146.336 248.62 143.537 247.244 143.537 242.504C143.537 237.764 149.32 233.15 151.419 231.927ZM154.034 276.752C151.235 282.868 102.25 318.95 102.25 323.843C102.25 328.736 117.121 324.455 143.537 323.843C169.954 323.231 170.828 318.186 192.521 320.785C214.214 323.384 209.316 328.43 225.411 329.959C241.506 331.488 238.707 325.066 259 325.066C247.454 318.339 218.413 307.331 189.023 307.331C159.632 307.331 143.012 319.103 139.339 312.223C154.034 299.38 164.53 285.314 169.429 279.81C174.327 274.306 179.051 268.955 176.427 266.355C173.802 263.756 161.731 266.05 156.833 268.19C151.934 270.331 156.833 270.636 154.034 276.752ZM205.117 312.835C214.914 328.735 261.099 326.289 242.905 318.339C224.711 310.388 190.422 287.76 175.027 276.14C159.632 264.521 157.708 269.107 165.93 279.198C174.152 289.289 195.321 296.934 205.117 312.835ZM145.637 373.38C147.736 381.942 156.133 381.33 157.533 371.545C158.932 361.76 140.038 339.744 136.539 337.909C133.041 336.074 124.643 339.132 124.643 342.802C124.643 346.471 143.537 364.818 145.637 373.38ZM190.422 330.57C203.018 330.57 212.115 337.909 219.813 345.859C215.614 355.645 207.916 356.256 204.418 364.207C200.919 372.157 203.718 380.107 193.921 380.107C184.124 380.107 166.63 377.661 148.436 383.165C148.436 383.165 135.84 378.273 139.339 373.992C142.837 369.711 181.325 362.983 188.323 366.653C190.422 357.479 203.018 347.694 197.42 344.636C191.822 341.578 155.433 339.132 142.837 348.917C130.241 358.702 125.518 344.942 135.84 340.355C146.161 335.769 177.826 330.57 190.422 330.57Z" fill-rule="evenodd" stroke="rgb(0,0,0)" stroke-opacity="0" stroke-width="1.000000" />
		<path id="Vector 6" d="M190.422 330.57C177.826 330.57 146.161 335.769 135.84 340.355C125.518 344.942 130.241 358.702 142.837 348.917C155.433 339.132 191.822 341.578 197.42 344.636C203.018 347.694 190.422 357.479 188.323 366.653C181.325 362.983 142.837 369.711 139.339 373.992C135.84 378.273 148.436 383.165 148.436 383.165C166.63 377.661 184.124 380.107 193.921 380.107C203.718 380.107 200.919 372.157 204.418 364.207C207.916 356.256 215.614 355.645 219.813 345.859C212.115 337.909 203.018 330.57 190.422 330.57Z" fill="rgb(0,0,0)" fill-rule="evenodd" />
		<path id="Vector 6" d="M190.422 330.57C177.826 330.57 146.161 335.769 135.84 340.355C125.518 344.942 130.241 358.702 142.837 348.917C155.433 339.132 191.822 341.578 197.42 344.636C203.018 347.694 190.422 357.479 188.323 366.653C181.325 362.983 142.837 369.711 139.339 373.992C135.84 378.273 148.436 383.165 148.436 383.165C166.63 377.661 184.124 380.107 193.921 380.107C203.718 380.107 200.919 372.157 204.418 364.207C207.916 356.256 215.614 355.645 219.813 345.859C212.115 337.909 203.018 330.57 190.422 330.57Z" fill="rgb(222,74,74)" fill-rule="evenodd" />
		<path id="Vector 6" d="M88.9548 43.7438C107.849 42.5207 128.842 38.2397 134.44 37.0165C131.641 44.9669 83.3566 70.6529 83.3566 70.6529C83.3566 70.6529 74.2595 60.2562 68.6613 65.1488C69.9754 77.0157 74.0982 75.2304 79.8577 98.7851C83.2996 112.862 89.0455 147.075 90.3543 167.893C95.9525 172.174 99.4514 172.785 102.95 169.727C94.553 86.5537 102.95 92.6694 88.9548 73.7107C134.44 57.1983 179.226 51.6942 171.528 37.0165C229.61 32.7355 247.185 50.5879 249.203 38.2397C252.002 21.1157 245.005 29.0661 211.415 15C191.019 15 125.734 25.2541 94.553 28.4545C51.919 32.8305 44.869 30.2893 44.869 37.0165C44.869 43.7438 70.0609 44.9669 88.9548 43.7438ZM134.44 80.438C156.133 77.3801 170.129 69.4297 186.923 74.3223C198.819 83.4959 193.221 149.545 184.124 153.826C175.027 158.107 134.44 156.884 134.44 153.826C134.44 150.769 175.727 137.926 175.727 116.521C175.727 95.1157 162.081 101.843 145.462 101.843C128.842 101.843 110.473 111.628 110.473 116.521C110.473 121.413 159.238 113.921 158.932 125.083C158.626 136.244 113.447 147.711 109.248 161.165C105.05 174.62 130.941 170.339 154.734 170.339C178.526 170.339 188.323 178.289 198.12 170.339C207.916 162.388 200.744 147.864 207.916 125.083C215.089 102.302 226.81 83.4959 226.81 83.4959C226.81 83.4959 222.612 65.1488 193.221 56.5868C160.507 54.2934 156.133 74.3223 99.4514 77.3802C101.551 88.3884 112.747 83.4959 134.44 80.438ZM84.0563 220.488C93.1534 223.545 103.65 234.554 103.65 240.058C103.65 245.562 93.1533 263.909 93.1533 263.909C93.1533 263.909 100.851 260.851 103.65 260.851C106.449 260.851 115.371 268.649 112.747 276.752C110.123 284.855 99.4513 288.372 94.553 290.818C93.1533 288.372 97.3521 279.81 99.4513 274.917C97.3521 276.752 93.1533 278.587 93.1533 278.587L79.8577 288.372C79.8577 288.372 46.2685 284.091 49.7674 271.859C53.966 267.578 77.0586 277.364 79.8577 270.636C81.5987 266.452 79.8577 254.124 67.2617 240.058C67.2617 231.496 74.9593 223.545 84.0563 220.488ZM79.8577 288.372C79.8577 288.372 81.2572 309.777 79.8577 312.223C78.4581 314.669 77.0586 315.893 73.5597 318.95C75.659 315.281 77.0586 314.669 77.0586 307.331C77.0586 307.331 57.4649 335.463 52.5665 337.298C47.668 339.132 39.4457 340.355 42.7696 344.636C46.0936 348.917 59.5642 353.198 67.2617 352.587C70.0609 344.025 79.8577 334.24 79.8577 334.24C79.8577 334.24 77.0586 356.256 77.0586 369.099C77.0586 381.942 84.7559 385 87.5551 385C90.3543 385 95.9524 378.273 95.9524 362.372C95.9524 346.471 94.553 337.298 94.553 314.058C102.95 305.496 110.648 293.264 110.648 293.264C110.648 293.264 99.4513 298.769 95.9524 303.05C93.1533 298.157 93.1533 278.587 93.1533 278.587M151.419 231.927C153.518 230.704 156.483 227.826 159.632 227.215C162.781 226.603 164.88 229.508 164.53 233.331C164.181 237.153 158.932 238.07 158.232 242.504C157.533 246.938 160.332 250.455 160.332 250.455C160.332 250.455 175.027 238.835 175.027 235.165C175.027 231.496 167.33 225.992 167.33 223.545C167.33 221.099 183.424 207.033 186.923 207.645C190.422 208.256 196.72 224.769 196.72 228.438C196.72 232.107 184.124 240.058 184.124 246.174C191.822 245.562 206.867 240.364 218.413 243.727C229.959 247.091 246.754 255.347 230.309 259.628C213.865 263.909 203.018 252.289 164.53 262.686C126.043 273.083 111.348 265.744 112.747 258.405C114.147 251.066 140.038 256.57 150.535 254.124C146.336 248.62 143.537 247.244 143.537 242.504C143.537 237.764 149.32 233.15 151.419 231.927ZM154.034 276.752C151.235 282.868 102.25 318.95 102.25 323.843C102.25 328.736 117.121 324.455 143.537 323.843C169.954 323.231 170.828 318.186 192.521 320.785C214.214 323.384 209.316 328.43 225.411 329.959C241.506 331.488 238.707 325.066 259 325.066C247.454 318.339 218.413 307.331 189.023 307.331C159.632 307.331 143.012 319.103 139.339 312.223C154.034 299.38 164.53 285.314 169.429 279.81C174.327 274.306 179.051 268.955 176.427 266.355C173.802 263.756 161.731 266.05 156.833 268.19C151.934 270.331 156.833 270.636 154.034 276.752ZM205.117 312.835C214.914 328.735 261.099 326.289 242.905 318.339C224.711 310.388 190.422 287.76 175.027 276.14C159.632 264.521 157.708 269.107 165.93 279.198C174.152 289.289 195.321 296.934 205.117 312.835ZM145.637 373.38C147.736 381.942 156.133 381.33 157.533 371.545C158.932 361.76 140.038 339.744 136.539 337.909C133.041 336.074 124.643 339.132 124.643 342.802C124.643 346.471 143.537 364.818 145.637 373.38ZM190.422 330.57C203.018 330.57 212.115 337.909 219.813 345.859C215.614 355.645 207.916 356.256 204.418 364.207C200.919 372.157 203.718 380.107 193.921 380.107C184.124 380.107 166.63 377.661 148.436 383.165C148.436 383.165 135.84 378.273 139.339 373.992C142.837 369.711 181.325 362.983 188.323 366.653C190.422 357.479 203.018 347.694 197.42 344.636C191.822 341.578 155.433 339.132 142.837 348.917C130.241 358.702 125.518 344.942 135.84 340.355C146.161 335.769 177.826 330.57 190.422 330.57Z" fill-rule="evenodd" stroke="rgb(0,0,0)" stroke-opacity="0" stroke-width="1.000000" />
	</g>
</svg>
