<svg viewBox="0 0 300 400" xmlns="http://www.w3.org/2000/svg" xmlns:xlink="http://www.w3.org/1999/xlink" width="300.000000" height="400.000000" fill="none">
	<rect id="con" width="300.000000" height="400.000000" x="0.000000" y="0.000000" />
	<path id="vec" d="M197 37.5C203.375 36.375 203.5 35.75 213 32C222.5 28.25 225.75 22.875 235 22.5C242.5 23 246.25 28.125 246.5 31.5C245.5 34 241 35 236 36C231 37 225.125 35.5 214 38C202.875 40.5 197 46 191.5 46C186 46 183 41.5 184 39C185.5 36.5 190.625 38.625 197 37.5Z" fill="rgb(222,74,74)" fill-rule="evenodd" />
	<path id="vec" d="M197 37.5C190.625 38.625 185.5 36.5 184 39C183 41.5 186 46 191.5 46C197 46 202.875 40.5 214 38C225.125 35.5 231 37 236 36C241 35 245.5 34 246.5 31.5C246.25 28.125 242.5 23 235 22.5C225.75 22.875 222.5 28.25 213 32C203.5 35.75 203.375 36.375 197 37.5Z" fill-rule="evenodd" stroke="rgb(0,0,0)" stroke-opacity="0" stroke-width="1.000000" />
	<path id="vec" d="M219 22C219.5 18.5 214.875 14.375 211.5 13.5C208.125 12.625 205.5 13.875 205.5 18.5C206.5 27.5 209.5 25 209.5 32C209.5 38.5 211 48.875 201.5 67C192 85.125 172.5 104.5 172.5 104.5C172.5 104.5 194.25 92.25 205.5 73C216.75 53.75 216.5 37 216.5 33.5C216.5 30 218.5 25.5 219 22Z" fill="rgb(222,74,74)" fill-rule="evenodd" />
	<path id="vec" d="M219 22C218.5 25.5 216.5 30 216.5 33.5C216.5 37 216.75 53.75 205.5 73C194.25 92.25 172.5 104.5 172.5 104.5C172.5 104.5 192 85.125 201.5 67C211 48.875 209.5 38.5 209.5 32C209.5 25 206.5 27.5 205.5 18.5C205.5 13.875 208.125 12.625 211.5 13.5C214.875 14.375 219.5 18.5 219 22Z" fill-rule="evenodd" stroke="rgb(0,0,0)" stroke-opacity="0" stroke-width="1.000000" />
	<path id="vec" d="M249.5 105C223.5 91 209 48 209 48C209 48 234.5 79.5 252.5 83.5C259 85 274 85 274 85C274 85 259.5 107.5 249.5 105Z" fill="rgb(222,74,74)" fill-rule="evenodd" />
	<path id="vec" d="M249.5 105C259.5 107.5 274 85 274 85C274 85 259 85 252.5 83.5C234.5 79.5 209 48 209 48C209 48 223.5 91 249.5 105Z" fill-rule="evenodd" stroke="rgb(0,0,0)" stroke-opacity="0" stroke-width="1.000000" />
	<path id="vec" d="M189.5 56C185.569 49.8012 199.927 50.9646 207 49C217.21 46.1638 227 38.5 233.5 42C233.5 42 238.226 46.1894 236 49C233.723 51.876 228.422 50.9308 224 51C219.931 51.0636 216.782 52.2104 213.5 53C207.863 54.356 206 56 199.5 58C199.5 58 191.5 59.5 189.5 56Z" fill="rgb(222,74,74)" fill-rule="evenodd" />
	<path id="vec" d="M189.5 56C191.5 59.5 199.5 58 199.5 58C206 56 207.863 54.356 213.5 53C216.782 52.2104 219.931 51.0636 224 51C228.422 50.9308 233.723 51.876 236 49C238.226 46.1894 233.5 42 233.5 42C227 38.5 217.21 46.1638 207 49C199.927 50.9646 185.569 49.8012 189.5 56Z" fill-rule="evenodd" stroke="rgb(0,0,0)" stroke-opacity="0" stroke-width="1.000000" />
	<path id="vec" d="M214 61C200.754 64.6933 182 65 176 73C175 76.5 178 80 185.5 79C190 79 204.34 70.6795 215.5 67.5C222.606 65.4755 229.927 65.8771 236.85 66.2568C243.643 66.6294 250.053 66.9809 255.5 65C259 62.5 261.5 58 253 52.5C247.326 49.3083 237.625 52.8169 227.113 56.6185C222.805 58.1769 218.36 59.7844 214 61ZM196 89C193.134 90.0497 192.5 93 192.5 96C194.772 102.167 194.516 110.653 194.33 116.805C194.229 120.129 194.149 122.772 194.5 124C195 125 197.5 126.5 200.5 124C205.5 120.5 214 120 218.5 120.5C219.488 119.937 220.258 119.862 221 119C222.654 117.079 220.5 115 218.5 114C216.308 114 213 115 210.388 115.5C210.388 115.5 203 117 202 117C200.658 113.869 200.767 111.537 200.939 107.86C200.959 107.427 200.98 106.975 201 106.5C201.032 105.73 201.078 104.984 201.123 104.253C201.273 101.816 201.414 99.5335 201 97C200.32 92.8366 199 88 196 89Z" fill="rgb(222,74,74)" fill-rule="evenodd" />
	<path id="vec" d="M176 73C175 76.5 178 80 185.5 79C190 79 204.34 70.6796 215.5 67.5C229.577 63.4894 244.5 69 255.5 65C259 62.5 261.5 58 253 52.5C245 48 228.995 56.819 214 61C200.754 64.6933 182 65 176 73ZM192.5 96C196 105.5 193.5 120.5 194.5 124C195 125 197.5 126.5 200.5 124C205.5 120.5 214 120 218.5 120.5C219.488 119.937 220.258 119.862 221 119C222.654 117.079 220.5 115 218.5 114C216.308 114 213 115 210.387 115.5C210.387 115.5 203 117 202 117C200.5 113.5 200.813 110.998 201 106.5C201.139 103.165 201.538 100.294 201 97C200.32 92.8366 199 88 196 89C193.134 90.0497 192.5 93 192.5 96Z" fill-rule="evenodd" stroke="rgb(0,0,0)" stroke-opacity="0" stroke-width="1.000000" />
	<path id="vec" d="M209 87.5C204 90.5 201.5 91.5 199.5 93.5C197.997 95.0033 195.775 98.5733 197.912 98.3682C198.843 98.2789 201.5 97.5 203 96.5C208.172 93.052 217 89.5 220.5 90.5C221 93 219.5 96.5 219 102.5C218.668 106.486 217.194 117.081 219 122.5C219.5 124 227.372 125.639 228 122.5C228.5 120 226.375 115.75 227 108.5C227.625 101.25 230.303 97.0263 230 94C229.5 89 225.5 83.5 221 82.5C216.5 82 210.768 86.4394 209 87.5Z" fill="rgb(222,74,74)" fill-rule="evenodd" />
	<path id="vec" d="M209 87.5C210.768 86.4394 216.5 82 221 82.5C225.5 83.5 229.5 89 230 94C230.303 97.0263 227.625 101.25 227 108.5C226.375 115.75 228.5 120 228 122.5C227.372 125.639 219.5 124 219 122.5C217.194 117.081 218.668 106.486 219 102.5C219.5 96.5 221 93 220.5 90.5C217 89.5 208.172 93.052 203 96.5C201.5 97.5 198.843 98.2789 197.912 98.3682C195.775 98.5733 197.997 95.0033 199.5 93.5C201.5 91.5 204 90.5 209 87.5Z" fill-rule="evenodd" stroke="rgb(0,0,0)" stroke-opacity="0" stroke-width="1.000000" />
	<path id="vec" d="M198 103.5C197 104.5 198 106 199 106C203.5 103.5 216 98.5 222 97.5C224 96 224.5 94 221 93.5C215 95 202 100 198 103.5ZM199.409 110.687C199.234 111.608 199.025 112.71 201 113.5C206 110.5 218 107.5 223.5 106.5C226.5 104 225 102 222.5 102C216.5 103 204.875 107.25 199.5 110C199.5 110.21 199.456 110.442 199.409 110.687Z" fill="rgb(222,74,74)" fill-rule="evenodd" />
	<path id="vec" d="M199 106C203.5 103.5 216 98.5 222 97.5C224 96 224.5 94 221 93.5C215 95 202 100 198 103.5C197 104.5 198 106 199 106ZM201 113.5C206 110.5 218 107.5 223.5 106.5C226.5 104 225 102 222.5 102C216.5 103 204.875 107.25 199.5 110C199.5 111 198.5 112.5 201 113.5Z" fill-rule="evenodd" stroke="rgb(0,0,0)" stroke-opacity="0" stroke-width="1.000000" />
	<path id="vec" d="M143 46.5C148 40 154 44 154 50C125 131 140.5 183 140.5 183C140.5 183 109 127.5 143 46.5ZM126 91C127.5 96 127.67 108.5 125.5 108.5C122 109 118.305 101.572 117 94.5C116.327 90.8566 118 85.5 121.5 84C125 84 125.5 90 126 91Z" fill="rgb(77,148,53)" fill-rule="evenodd" />
	<path id="vec" d="M154 50C125 131 140.5 183 140.5 183C140.5 183 109 127.5 143 46.5C148 40 154 44 154 50ZM125.5 108.5C122 109 118.305 101.572 117 94.5C116.327 90.8566 118 85.5 121.5 84C125 84 125.5 90 126 91C127.5 96 127.67 108.5 125.5 108.5Z" fill-rule="evenodd" stroke="rgb(0,0,0)" stroke-opacity="0" stroke-width="1.000000" />
	<path id="vec" d="M145 105C146.5 101 149.594 94.5266 154 96.5C157.979 98.2822 156.443 103.162 156 107.5C154 114 147.5 121.5 143.5 121C141.5 119.5 142.5 111 145 105Z" fill="rgb(77,148,53)" fill-rule="evenodd" />
	<path id="vec" d="M145 105C142.5 111 141.5 119.5 143.5 121C147.5 121.5 154 114 156 107.5C156.443 103.162 157.979 98.2822 154 96.5C149.594 94.5266 146.5 101 145 105Z" fill-rule="evenodd" stroke="rgb(0,0,0)" stroke-opacity="0" stroke-width="1.000000" />
	<path id="vec" d="M84 152.5C72.5 142.5 63 117 67.5 113.5C72 110 74.8926 116.624 76 120.5C76.238 121.333 76.2211 122.59 76.1987 124.259L76.1987 124.26C76.127 129.604 75.9988 139.165 84 152.5ZM37.5 125C35 127.5 46 148 63 152.5C47.5 140 49.5 129.5 46 126.5C42.5 123.5 40 122.5 37.5 125ZM137 138.5C137.5 136.5 145.5 128.5 154 129.5C171 133 154 173 145 181C145.264 179.944 145.807 178.098 146.492 175.768C149.7 164.857 156.032 143.324 151.5 142.5C149.327 141.879 146.384 142.8 143.866 143.587C142.328 144.068 140.948 144.5 140 144.5C136.5 142.5 136.5 140.5 137 138.5ZM104 159.5C97 147.5 96.5 137.5 99.5 134C102 131 104 132.5 105 136C105.579 138.026 104.904 139.436 104.059 141.204C102.555 144.346 100.51 148.621 104 159.5ZM46.2897 169.686C57.3339 165.858 83.7428 156.704 129.5 181C109 156 52.5 156.5 48 158.5C42.8942 160.769 31.5 167 41 171C41.9506 171.19 43.6963 170.585 46.2888 169.687L46.2891 169.686L46.2893 169.686L46.2894 169.686L46.2897 169.686ZM56 172C39.5 181 36.3515 197.82 37.5 200.5C39 204 43 205.5 46 201.5C48.5727 199.57 48.7553 196.446 48.9916 192.402C49.3064 187.015 49.7166 179.997 56 172ZM82.5 172C72 177.5 65.5393 185.284 65 189C64.4607 192.716 66.2422 193.833 70.5 192C74.7578 190.167 74.0963 177.692 82.5 172ZM70.5 219C67.027 217.015 84.5 191.5 92.5 194.5C98.6127 196.792 93.9246 201.42 90.0341 205.26C88.8329 206.446 87.7077 207.556 87 208.5C85.961 209.308 84.7088 210.409 83.3541 211.601L83.354 211.601C78.8414 215.57 73.1919 220.538 70.5 219ZM176 290C170.279 290.855 163 290.5 148.5 277.5C172.292 292.507 179.203 283.666 183.748 277.851C185.412 275.723 186.758 274 188.5 274C191 274 194 275.5 194 280C194 284.5 181.721 289.145 176 290ZM256 274.5C261.956 272.795 266.5 284 260.5 290C254.5 296 241.5 295.5 225 311C238.5 284.5 250.044 276.205 256 274.5ZM76 316.5C65 315.5 63 295.5 39.5 277.5C61 281 82.5 306.5 82.5 309C82.5 309.361 82.5409 309.789 82.5855 310.257C82.8499 313.029 83.2439 317.159 76 316.5ZM176.5 303C184.159 294.406 203 284.5 203 284.5C203 284.5 198.5 296 191 303C183.5 310 162.5 323 162.5 323C162.5 323 169.484 310.874 176.5 303ZM217 288.5C218.5 288.5 220.256 292.342 220 297.5C219.744 302.658 208 315 203 323C201.5 314.5 208 284.5 217 288.5ZM155 342.5C154.136 340.009 153.936 338.107 153.738 336.218C153.054 329.703 152.387 323.348 124.5 293.5C149 303 167.642 338.12 168.5 348C169.358 357.88 158.846 353.587 155 342.5ZM99.5 307.5C108.799 308.18 114.909 312.874 120.957 317.519C128.24 323.114 135.434 328.639 148 327C146.762 322.068 136.608 310.888 130.5 309C124.392 307.112 112.5 306 99.5 307.5ZM165.5 385C129.5 332 63 325.5 63 325.5C63 325.5 117.227 311 162.5 363.5C213 303 268.5 311 268.5 311C268.5 311 190 325.5 165.5 385ZM225 332C236 327 269.869 338.101 264.5 353.5C262.968 357.892 259.5 359.5 256 360.5C245.94 360.957 245.394 357.023 244.657 351.71C243.782 345.404 242.638 337.156 225 332ZM84 333C66.5 330.5 38.3073 353.993 37.5 361.5C36.6927 369.007 45.3184 369.584 51 365.5C56.6816 361.416 65 340 84 333ZM112.5 342.5C90.5 342.5 70.5 357 69.5 366.5C68.5 376 75.5 375.5 82.5 371C89.5 366.5 88 355.5 112.5 342.5ZM213 345C204.98 344.181 197.181 349.616 195.5 357.5C201.986 353.927 207.236 355.85 211.7 357.485C216.082 359.09 219.707 360.418 223 356C225 350 220.701 345.787 213 345Z" fill="rgb(77,148,53)" fill-rule="evenodd" />
	<path id="vec" d="M137 138.5C136.5 140.5 136.5 142.5 140 144.5C142.5 144.5 148 141.5 151.5 142.5C157 143.5 146.5 175 145 181C154 173 171 133 154 129.5C145.5 128.5 137.5 136.5 137 138.5ZM129.5 181C109 156 52.5 156.5 48 158.5C42.8942 160.769 31.5 167 41 171C46 172 73 151 129.5 181ZM63 152.5C47.5 140 49.5 129.5 46 126.5C42.5 123.5 40 122.5 37.5 125C35 127.5 46 148 63 152.5ZM84 152.5C73.5 135 77 124 76 120.5C74.8926 116.624 72 110 67.5 113.5C63 117 72.5 142.5 84 152.5ZM104 159.5C98.5473 142.5 106.608 141.627 105 136C104 132.5 102 131 99.5 134C96.5 137.5 97 147.5 104 159.5ZM37.5 200.5C39 204 43 205.5 46 201.5C52 197 45 186 56 172C39.5 181 36.3515 197.82 37.5 200.5ZM65 189C64.4607 192.716 66.2422 193.833 70.5 192C74.7578 190.167 74.0963 177.692 82.5 172C72 177.5 65.5393 185.284 65 189ZM70.5 219C74 221 82.5 212 87 208.5C90 204.5 100.5 197.5 92.5 194.5C84.5 191.5 67.027 217.015 70.5 219ZM76 316.5C84.4651 317.27 82.5 311.5 82.5 309C82.5 306.5 61 281 39.5 277.5C63 295.5 65 315.5 76 316.5ZM37.5 361.5C36.6927 369.007 45.3184 369.584 51 365.5C56.6816 361.416 65 340 84 333C66.5 330.5 38.3073 353.993 37.5 361.5ZM165.5 385C190 325.5 268.5 311 268.5 311C268.5 311 213 303 162.5 363.5C117.227 311 63 325.5 63 325.5C63 325.5 129.5 332 165.5 385ZM69.5 366.5C68.5 376 75.5 375.5 82.5 371C89.5 366.5 88 355.5 112.5 342.5C90.5 342.5 70.5 357 69.5 366.5ZM99.5 307.5C112.5 306 124.392 307.112 130.5 309C136.608 310.888 146.762 322.068 148 327C125 330 120 309 99.5 307.5ZM155 342.5C158.846 353.587 169.358 357.88 168.5 348C167.642 338.12 149 303 124.5 293.5C160.471 332 151.154 331.413 155 342.5ZM176 290C181.721 289.145 194 284.5 194 280C194 275.5 191 274 188.5 274C182 274 181 298 148.5 277.5C163 290.5 170.279 290.855 176 290ZM220 297.5C219.744 302.658 208 315 203 323C201.5 314.5 208 284.5 217 288.5C218.5 288.5 220.256 292.342 220 297.5ZM176.5 303C169.484 310.874 162.5 323 162.5 323C162.5 323 183.5 310 191 303C198.5 296 203 284.5 203 284.5C203 284.5 184.159 294.406 176.5 303ZM260.5 290C254.5 296 241.5 295.5 225 311C238.5 284.5 250.044 276.205 256 274.5C261.956 272.795 266.5 284 260.5 290ZM225 332C257.5 341.5 234 361.5 256 360.5C259.5 359.5 262.968 357.892 264.5 353.5C269.869 338.101 236 327 225 332ZM213 345C220.701 345.787 225 350 223 356C216.351 364.92 208.351 350.42 195.5 357.5C197.181 349.616 204.98 344.181 213 345Z" fill-rule="evenodd" stroke="rgb(0,0,0)" stroke-opacity="0" stroke-width="1.000000" />
	<path id="vec" d="M226 230.3C232.5 222.5 214.5 198.5 196 196.5C177.866 194.54 160.692 198.825 142.596 223.012C142.237 222.83 141.871 222.659 141.5 222.5C123.375 216.125 97.8545 216 80 234C71.5 243 69.5 272.8 86.8545 277.5C116.428 284.419 124.404 281.174 134.498 277.069C142.202 273.935 151.139 270.3 171.855 270.3C191.639 269.001 206.334 272.179 217.952 274.691C231.376 277.594 240.691 279.608 249 272.8C258 267.5 264.297 249.364 253.355 236.8C244 228 230.5 234 230.5 234C230.5 234 209.646 246 201 255.8C209.645 250.5 239 236.8 243 244.3C252.078 268.507 226.507 266.07 200.458 263.586C187.769 262.377 174.966 261.156 166 263C161.866 263.85 157.708 264.728 153.588 265.598C129.389 270.707 106.524 275.534 97.8545 272.8C87.7091 269.6 71.2091 241.1 91.8545 236.8C105.221 234.016 116.481 246.057 124.219 254.332C128.433 258.838 131.602 262.228 133.5 261.5C138.882 259.434 135.5 234 113.855 230.3C137.174 224.921 146.567 240.501 152.097 249.673C154.071 252.948 155.553 255.405 157 255.8C161.539 257.038 158.685 238.112 148.752 227.697C152.774 225.785 158.571 223.892 163.5 226C168.531 232.632 170.32 239.683 171.736 245.266C173.417 251.891 174.574 256.451 180 255.8C191.513 251.359 175.955 235.315 169.394 228.55C168.274 227.395 167.416 226.51 167 226C179.236 227.947 185.13 234.688 189.501 239.686C192.989 243.675 195.506 246.553 199.5 245C210.409 240.758 193.392 223.348 182 220.5C170.982 217.745 156.074 223.149 148.41 227.345C146.856 225.771 145.135 224.408 143.247 223.358C186.004 195.736 200.165 211.608 210.278 222.942C215.477 228.769 219.606 233.396 226 230.3Z" fill="rgb(255,193,212)" fill-rule="evenodd" />
	<path id="vec" d="M142.596 223.012C142.237 222.83 141.871 222.659 141.5 222.5C123.375 216.125 97.8545 216 80 234C71.5 243 69.5 272.8 86.8545 277.5C139 289.7 124 270.3 171.855 270.3C214.5 267.5 233.5 285.5 249 272.8C258 267.5 264.297 249.364 253.355 236.8C244 228 230.5 234 230.5 234C230.5 234 209.645 246 201 255.8C209.645 250.5 239 236.8 243 244.3C256.5 280.3 193.369 257.371 166 263C137.587 268.844 108 276 97.8545 272.8C87.7091 269.6 71.2091 241.1 91.8545 236.8C112.5 232.5 128.118 263.566 133.5 261.5C138.882 259.434 135.5 234 113.855 230.3C145.5 223 151.5 254.3 157 255.8C161.539 257.038 158.685 238.112 148.752 227.697M226 230.3C207.168 239.419 207.984 181.537 143.247 223.358C142.67 223.731 142.087 224.111 141.5 224.5C141.866 223.996 142.231 223.5 142.596 223.012C160.692 198.825 177.866 194.54 196 196.5C214.5 198.5 232.5 222.5 226 230.3ZM199.5 245C190.5 248.5 189 229.5 167 226C169.855 229.5 193.478 250.601 180 255.8C170 257 174.5 240.5 163.5 226C158.571 223.892 152.774 225.785 148.752 227.697C146.338 228.845 144.563 230 144 230.3C144.792 229.527 146.336 228.48 148.41 227.345C156.074 223.149 170.982 217.745 182 220.5C193.392 223.348 210.409 240.758 199.5 245ZM148.752 227.697C148.639 227.578 148.525 227.461 148.41 227.345M148.41 227.345C146.856 225.771 145.135 224.408 143.247 223.358M143.247 223.358C143.032 223.239 142.815 223.123 142.596 223.012" fill-rule="evenodd" stroke="rgb(0,0,0)" stroke-opacity="0" stroke-width="1.000000" />
	<path id="vec" d="M118 191C104.415 198.169 94.5 214.5 96.5 226C99.9119 226.824 99.2434 224.776 101 224C103.265 204.747 112.16 197.536 122.352 195.777C142 185.5 157 206 159.5 202C161 196.5 153.5 192 152 191.5C152 184 170.342 165.646 189.5 170C200.5 172.5 206.902 177.554 209.5 181C212.098 184.446 216.5 191 218 191C210 198.5 218 202 222.5 201.5C226 201 230.5 192 239 200.5C241.5 208 230.5 216 236 216C239 215 239 214.5 240 214C240.5 220 258 219 240.5 238C243.499 238.86 242.972 238.754 246 238C256.5 228 257.5 210 244 210C252 194.5 238.5 184.5 224.5 188.5C232 175 203.5 161.5 188 161.5C165.5 161.5 148 180 146.5 189.5C140 188 129.5 184.5 118 191Z" fill="rgb(255,193,212)" fill-rule="evenodd" />
	<path id="vec" d="M118 191C129.5 184.5 140 188 146.5 189.5C148 180 165.5 161.5 188 161.5C203.5 161.5 232 175 224.5 188.5C238.5 184.5 252 194.5 244 210C257.5 210 256.5 228 246 238C242.972 238.754 243.499 238.86 240.5 238C258 219 240.5 220 240 214C239 214.5 239 215 236 216C230.5 216 241.5 208 239 200.5C230.5 192 226 201 222.5 201.5C218 202 210 198.5 218 191C216.5 191 212.098 184.446 209.5 181C206.902 177.554 200.5 172.5 189.5 170C170.342 165.646 152 184 152 191.5C153.5 192 161 196.5 159.5 202C157 206 142 185.5 122.352 195.777C112.16 197.536 103.265 204.747 101 224C99.2434 224.776 99.9119 226.824 96.5 226C94.5 214.5 104.415 198.169 118 191Z" fill-rule="evenodd" stroke="rgb(0,0,0)" stroke-opacity="0" stroke-width="1.000000" />
</svg>
