<svg viewBox="0 0 300 400" xmlns="http://www.w3.org/2000/svg" xmlns:xlink="http://www.w3.org/1999/xlink" width="300.000000" height="400.000000" fill="none">
	<rect id="rec" width="300.000000" height="400.000000" x="0.000000" y="0.000000" fill="rgb(255,255,255)" fill-opacity="0" />
	<path id="vec" d="M32.2239 76.7648C16.8254 70.2104 40.7787 66.6353 45.3413 58.2934C37.3568 48.7598 48.1929 39.5241 52.1851 37.4386C56.1773 35.3531 61.3102 45.1847 61.3102 49.9515C66.443 48.7598 71.0056 49.9515 77.8494 46.9722C76.1384 37.4386 77.8494 1.68754 90.9667 16.5838C104.084 31.4801 96.6699 37.4386 94.3887 44.5888C110.928 49.3556 116.061 37.4386 122.905 51.739C130.889 68.4229 106.365 56.5058 89.2558 61.2726C89.2558 70.8063 86.4042 73.1897 89.2558 83.3191C92.1074 85.7026 114.92 86.2984 105.795 97.0237C96.6699 107.749 104.654 96.4279 82.9823 94.6403C56.1773 92.8528 52.1851 114.303 39.0678 97.0237C25.9505 79.744 62.4508 94.6403 77.8494 80.3399C78.4197 55.91 79.5603 58.2934 69.865 58.2934C60.1696 58.2934 70.4353 75.5731 65.3024 77.9565C60.1696 80.3399 60.5498 72.7924 56.1773 70.2104C56.1773 70.2104 47.6225 83.3191 32.2239 76.7648Z" fill="rgb(222,74,74)" fill-rule="evenodd" />
	<path id="vec" d="M32.2239 76.7648C47.6225 83.3191 56.1773 70.2104 56.1773 70.2104C60.5498 72.7924 60.1696 80.3399 65.3024 77.9565C70.4353 75.5731 60.1696 58.2934 69.865 58.2934C79.5603 58.2934 78.4197 55.91 77.8494 80.3399C62.4508 94.6403 25.9505 79.744 39.0678 97.0237C52.1851 114.303 56.1773 92.8528 82.9823 94.6403C104.654 96.4279 96.6699 107.749 105.795 97.0237C114.92 86.2984 92.1074 85.7026 89.2558 83.3191C86.4042 73.1897 89.2558 70.8063 89.2558 61.2726C106.365 56.5058 130.889 68.4229 122.905 51.739C116.061 37.4386 110.928 49.3556 94.3887 44.5888C96.6699 37.4386 104.084 31.4801 90.9667 16.5838C77.8494 1.68754 76.1384 37.4386 77.8494 46.9722C71.0056 49.9515 66.443 48.7598 61.3102 49.9515C61.3102 45.1847 56.1773 35.3531 52.1851 37.4386C48.1929 39.5241 37.3568 48.7598 45.3413 58.2934C40.7787 66.6353 16.8254 70.2104 32.2239 76.7648ZM117.772 110.132C121.764 111.324 133.17 120.262 122.905 125.625C98.9512 118.474 63.5915 121.454 25.9505 127.412C18.5364 123.837 27.0912 117.878 29.3724 113.112C35.0756 113.708 108.076 111.92 117.772 110.132ZM189.632 368.732C184.3 364.875 189.632 356.815 189.632 348.473C174.803 327.022 172.202 309.625 181.077 307.955C211.804 302.171 209.023 326.426 258.64 305.572C218.718 310.338 193.054 301.401 191.343 290.675C189.632 279.95 187.351 243.007 220.429 227.515C173.663 234.069 184.499 278.162 181.077 291.867C179.936 311.927 147.999 284.717 177.655 349.665C164.538 351.452 154.272 349.664 156.553 302.592C156.553 302.592 177.655 276.971 166.819 261.479C161.116 275.779 156.553 276.971 156.553 276.971C156.553 276.971 156.741 209.635 231.835 212.619C219.859 202.489 181.077 193.765 154.272 242.411C161.116 223.94 199.897 119.666 270.047 220.365C270.047 207.852 254.648 164.951 213.585 162.567C172.522 160.184 136.592 220.365 144.577 305.572C133.741 276.971 116.061 188.785 197.046 154.225C147.999 153.573 117.772 212.619 129.178 295.442C101.232 198.914 154.272 154.225 166.819 108.345C179.366 62.4643 164.538 35.6511 129.178 15.988C147.999 43.993 165.678 56.5059 154.272 102.982C142.866 149.459 124.045 173.889 107.506 223.94C104.654 207.852 118.912 140.521 70.4353 159.588C104.091 167.251 99.5215 186.401 96.0996 207.852C89.8261 203.085 55.0367 153.034 24.8098 228.707C63.5914 169.122 93.4646 218.463 101.232 234.069C108.647 248.966 109.787 279.354 116.631 290.675C113.209 288.292 69.2946 277.567 56.7476 294.25C88.6854 289.484 118.912 295.442 147.999 334.172C127.873 317.839 99.5215 299.613 70.4353 321.66C105.795 318.68 111.498 319.872 139.444 340.131C118.342 337.747 95.5293 332.385 77.2791 349.665C175.374 334.172 161.116 363.965 181.077 379.457C201.038 394.949 204.46 379.457 189.632 368.732ZM46.4926 261.479C40.7894 268.182 43.06 274.587 51.0445 281.738C36.9007 287.81 16.8254 275.779 6 294.846C18.9367 284.428 63.0211 285.909 63.0211 285.909C63.0211 285.909 50.9126 272.353 52.7661 265.65C54.6196 258.946 64.315 253.882 68.735 259.095C73.155 264.309 70.446 284.717 70.446 284.717C70.446 284.717 92.6777 256.712 106.946 259.095C87.5448 251.349 82.9716 267.437 76.7088 270.416C77.2684 264.458 78.2878 252.243 70.446 250.157C62.6041 248.072 52.1958 254.775 46.4926 261.479ZM235.828 273.991C238.679 268.033 263.203 265.65 264.343 276.375C265.484 287.1 262.632 291.867 258.64 297.23C268.906 296.038 279.742 278.758 294 298.421C282.023 287.1 251.796 304.976 251.796 304.976C251.796 304.976 262.062 283.078 257.5 277.567C252.937 272.055 244.667 273.991 240.96 279.95C237.253 285.908 240.96 303.784 240.96 303.784C240.96 303.784 211.874 281.738 198.187 284.717C222.14 275.183 217.577 289.484 235.257 295.442C234.117 287.1 232.976 279.95 235.828 273.991Z" fill-rule="evenodd" stroke="rgb(0,0,0)" stroke-opacity="0" stroke-width="1.000000" />
	<path id="vec" d="M117.772 110.132C108.076 111.92 35.0756 113.708 29.3724 113.112C27.0912 117.878 18.5364 123.837 25.9505 127.412C63.5915 121.454 98.9512 118.474 122.905 125.625C133.17 120.262 121.764 111.324 117.772 110.132Z" fill="rgb(222,74,74)" fill-rule="evenodd" />
	<path id="vec" d="M117.772 110.132C108.076 111.92 35.0756 113.708 29.3724 113.112C27.0912 117.878 18.5364 123.837 25.9505 127.412C63.5915 121.454 98.9512 118.474 122.905 125.625C133.17 120.262 121.764 111.324 117.772 110.132Z" fill="rgb(222,74,74)" fill-rule="evenodd" />
	<path id="vec" d="M32.2239 76.7648C47.6225 83.3191 56.1773 70.2104 56.1773 70.2104C60.5498 72.7924 60.1696 80.3399 65.3024 77.9565C70.4353 75.5731 60.1696 58.2934 69.865 58.2934C79.5603 58.2934 78.4197 55.91 77.8494 80.3399C62.4508 94.6403 25.9505 79.744 39.0678 97.0237C52.1851 114.303 56.1773 92.8528 82.9823 94.6403C104.654 96.4279 96.6699 107.749 105.795 97.0237C114.92 86.2984 92.1074 85.7026 89.2558 83.3191C86.4042 73.1897 89.2558 70.8063 89.2558 61.2726C106.365 56.5058 130.889 68.4229 122.905 51.739C116.061 37.4386 110.928 49.3556 94.3887 44.5888C96.6699 37.4386 104.084 31.4801 90.9667 16.5838C77.8494 1.68754 76.1384 37.4386 77.8494 46.9722C71.0056 49.9515 66.443 48.7598 61.3102 49.9515C61.3102 45.1847 56.1773 35.3531 52.1851 37.4386C48.1929 39.5241 37.3568 48.7598 45.3413 58.2934C40.7787 66.6353 16.8254 70.2104 32.2239 76.7648ZM117.772 110.132C121.764 111.324 133.17 120.262 122.905 125.625C98.9512 118.474 63.5915 121.454 25.9505 127.412C18.5364 123.837 27.0912 117.878 29.3724 113.112C35.0756 113.708 108.076 111.92 117.772 110.132ZM189.632 368.732C184.3 364.875 189.632 356.815 189.632 348.473C174.803 327.022 172.202 309.625 181.077 307.955C211.804 302.171 209.023 326.426 258.64 305.572C218.718 310.338 193.054 301.401 191.343 290.675C189.632 279.95 187.351 243.007 220.429 227.515C173.663 234.069 184.499 278.162 181.077 291.867C179.936 311.927 147.999 284.717 177.655 349.665C164.538 351.452 154.272 349.664 156.553 302.592C156.553 302.592 177.655 276.971 166.819 261.479C161.116 275.779 156.553 276.971 156.553 276.971C156.553 276.971 156.741 209.635 231.835 212.619C219.859 202.489 181.077 193.765 154.272 242.411C161.116 223.94 199.897 119.666 270.047 220.365C270.047 207.852 254.648 164.951 213.585 162.567C172.522 160.184 136.592 220.365 144.577 305.572C133.741 276.971 116.061 188.785 197.046 154.225C147.999 153.573 117.772 212.619 129.178 295.442C101.232 198.914 154.272 154.225 166.819 108.345C179.366 62.4643 164.538 35.6511 129.178 15.988C147.999 43.993 165.678 56.5059 154.272 102.982C142.866 149.459 124.045 173.889 107.506 223.94C104.654 207.852 118.912 140.521 70.4353 159.588C104.091 167.251 99.5215 186.401 96.0996 207.852C89.8261 203.085 55.0367 153.034 24.8098 228.707C63.5914 169.122 93.4646 218.463 101.232 234.069C108.647 248.966 109.787 279.354 116.631 290.675C113.209 288.292 69.2946 277.567 56.7476 294.25C88.6854 289.484 118.912 295.442 147.999 334.172C127.873 317.839 99.5215 299.613 70.4353 321.66C105.795 318.68 111.498 319.872 139.444 340.131C118.342 337.747 95.5293 332.385 77.2791 349.665C175.374 334.172 161.116 363.965 181.077 379.457C201.038 394.949 204.46 379.457 189.632 368.732ZM46.4926 261.479C40.7894 268.182 43.06 274.587 51.0445 281.738C36.9007 287.81 16.8254 275.779 6 294.846C18.9367 284.428 63.0211 285.909 63.0211 285.909C63.0211 285.909 50.9126 272.353 52.7661 265.65C54.6196 258.946 64.315 253.882 68.735 259.095C73.155 264.309 70.446 284.717 70.446 284.717C70.446 284.717 92.6777 256.712 106.946 259.095C87.5448 251.349 82.9716 267.437 76.7088 270.416C77.2684 264.458 78.2878 252.243 70.446 250.157C62.6041 248.072 52.1958 254.775 46.4926 261.479ZM235.828 273.991C238.679 268.033 263.203 265.65 264.343 276.375C265.484 287.1 262.632 291.867 258.64 297.23C268.906 296.038 279.742 278.758 294 298.421C282.023 287.1 251.796 304.976 251.796 304.976C251.796 304.976 262.062 283.078 257.5 277.567C252.937 272.055 244.667 273.991 240.96 279.95C237.253 285.908 240.96 303.784 240.96 303.784C240.96 303.784 211.874 281.738 198.187 284.717C222.14 275.183 217.577 289.484 235.257 295.442C234.117 287.1 232.976 279.95 235.828 273.991Z" fill-rule="evenodd" stroke="rgb(0,0,0)" stroke-opacity="0" stroke-width="1.000000" />
	<path id="vec" d="M189.632 368.732C204.46 379.457 201.038 394.949 181.077 379.457C161.116 363.965 175.374 334.172 77.2791 349.665C95.5293 332.385 118.342 337.747 139.444 340.131C111.498 319.872 105.795 318.68 70.4353 321.66C99.5215 299.613 127.873 317.839 147.999 334.172C118.912 295.442 88.6854 289.484 56.7476 294.25C69.2946 277.567 113.209 288.292 116.631 290.675C109.787 279.354 108.647 248.966 101.232 234.069C93.4646 218.463 63.5914 169.122 24.8098 228.707C55.0367 153.034 89.8261 203.085 96.0996 207.852C99.5215 186.401 104.091 167.251 70.4353 159.588C118.912 140.521 104.654 207.852 107.506 223.94C124.045 173.889 142.866 149.459 154.272 102.982C165.678 56.5059 147.999 43.993 129.178 15.988C164.538 35.6511 179.366 62.4643 166.819 108.345C154.272 154.225 101.232 198.914 129.178 295.442C117.772 212.619 147.999 153.573 197.046 154.225C116.061 188.785 133.741 276.971 144.577 305.572C136.592 220.365 172.522 160.184 213.585 162.567C254.648 164.951 270.047 207.852 270.047 220.365C199.897 119.666 161.116 223.94 154.272 242.411C181.077 193.765 219.859 202.489 231.835 212.619C156.741 209.635 156.553 276.971 156.553 276.971C156.553 276.971 161.116 275.779 166.819 261.479C177.655 276.971 156.553 302.592 156.553 302.592C154.272 349.664 164.538 351.452 177.655 349.665C147.999 284.717 179.936 311.927 181.077 291.867C184.499 278.162 173.663 234.069 220.429 227.515C187.351 243.007 189.632 279.95 191.343 290.675C193.054 301.401 218.718 310.338 258.64 305.572C209.023 326.426 211.804 302.171 181.077 307.955C172.202 309.625 174.803 327.022 189.632 348.473C189.632 356.815 184.3 364.875 189.632 368.732Z" fill="rgb(222,74,74)" fill-rule="evenodd" />
	<path id="vec" d="M189.632 368.732C204.46 379.457 201.038 394.949 181.077 379.457C161.116 363.965 175.374 334.172 77.2791 349.665C95.5293 332.385 118.342 337.747 139.444 340.131C111.498 319.872 105.795 318.68 70.4353 321.66C99.5215 299.613 127.873 317.839 147.999 334.172C118.912 295.442 88.6854 289.484 56.7476 294.25C69.2946 277.567 113.209 288.292 116.631 290.675C109.787 279.354 108.647 248.966 101.232 234.069C93.4646 218.463 63.5914 169.122 24.8098 228.707C55.0367 153.034 89.8261 203.085 96.0996 207.852C99.5215 186.401 104.091 167.251 70.4353 159.588C118.912 140.521 104.654 207.852 107.506 223.94C124.045 173.889 142.866 149.459 154.272 102.982C165.678 56.5059 147.999 43.993 129.178 15.988C164.538 35.6511 179.366 62.4643 166.819 108.345C154.272 154.225 101.232 198.914 129.178 295.442C117.772 212.619 147.999 153.573 197.046 154.225C116.061 188.785 133.741 276.971 144.577 305.572C136.592 220.365 172.522 160.184 213.585 162.567C254.648 164.951 270.047 207.852 270.047 220.365C199.897 119.666 161.116 223.94 154.272 242.411C181.077 193.765 219.859 202.489 231.835 212.619C156.741 209.635 156.553 276.971 156.553 276.971C156.553 276.971 161.116 275.779 166.819 261.479C177.655 276.971 156.553 302.592 156.553 302.592C154.272 349.664 164.538 351.452 177.655 349.665C147.999 284.717 179.936 311.927 181.077 291.867C184.499 278.162 173.663 234.069 220.429 227.515C187.351 243.007 189.632 279.95 191.343 290.675C193.054 301.401 218.718 310.338 258.64 305.572C209.023 326.426 211.804 302.171 181.077 307.955C172.202 309.625 174.803 327.022 189.632 348.473C189.632 356.815 184.3 364.875 189.632 368.732Z" fill="rgb(77,148,53)" fill-rule="evenodd" />
	<path id="vec" d="M32.2239 76.7648C47.6225 83.3191 56.1773 70.2104 56.1773 70.2104C60.5498 72.7924 60.1696 80.3399 65.3024 77.9565C70.4353 75.5731 60.1696 58.2934 69.865 58.2934C79.5603 58.2934 78.4197 55.91 77.8494 80.3399C62.4508 94.6403 25.9505 79.744 39.0678 97.0237C52.1851 114.303 56.1773 92.8528 82.9823 94.6403C104.654 96.4279 96.6699 107.749 105.795 97.0237C114.92 86.2984 92.1074 85.7026 89.2558 83.3191C86.4042 73.1897 89.2558 70.8063 89.2558 61.2726C106.365 56.5058 130.889 68.4229 122.905 51.739C116.061 37.4386 110.928 49.3556 94.3887 44.5888C96.6699 37.4386 104.084 31.4801 90.9667 16.5838C77.8494 1.68754 76.1384 37.4386 77.8494 46.9722C71.0056 49.9515 66.443 48.7598 61.3102 49.9515C61.3102 45.1847 56.1773 35.3531 52.1851 37.4386C48.1929 39.5241 37.3568 48.7598 45.3413 58.2934C40.7787 66.6353 16.8254 70.2104 32.2239 76.7648ZM117.772 110.132C121.764 111.324 133.17 120.262 122.905 125.625C98.9512 118.474 63.5915 121.454 25.9505 127.412C18.5364 123.837 27.0912 117.878 29.3724 113.112C35.0756 113.708 108.076 111.92 117.772 110.132ZM189.632 368.732C184.3 364.875 189.632 356.815 189.632 348.473C174.803 327.022 172.202 309.625 181.077 307.955C211.804 302.171 209.023 326.426 258.64 305.572C218.718 310.338 193.054 301.401 191.343 290.675C189.632 279.95 187.351 243.007 220.429 227.515C173.663 234.069 184.499 278.162 181.077 291.867C179.936 311.927 147.999 284.717 177.655 349.665C164.538 351.452 154.272 349.664 156.553 302.592C156.553 302.592 177.655 276.971 166.819 261.479C161.116 275.779 156.553 276.971 156.553 276.971C156.553 276.971 156.741 209.635 231.835 212.619C219.859 202.489 181.077 193.765 154.272 242.411C161.116 223.94 199.897 119.666 270.047 220.365C270.047 207.852 254.648 164.951 213.585 162.567C172.522 160.184 136.592 220.365 144.577 305.572C133.741 276.971 116.061 188.785 197.046 154.225C147.999 153.573 117.772 212.619 129.178 295.442C101.232 198.914 154.272 154.225 166.819 108.345C179.366 62.4643 164.538 35.6511 129.178 15.988C147.999 43.993 165.678 56.5059 154.272 102.982C142.866 149.459 124.045 173.889 107.506 223.94C104.654 207.852 118.912 140.521 70.4353 159.588C104.091 167.251 99.5215 186.401 96.0996 207.852C89.8261 203.085 55.0367 153.034 24.8098 228.707C63.5914 169.122 93.4646 218.463 101.232 234.069C108.647 248.966 109.787 279.354 116.631 290.675C113.209 288.292 69.2946 277.567 56.7476 294.25C88.6854 289.484 118.912 295.442 147.999 334.172C127.873 317.839 99.5215 299.613 70.4353 321.66C105.795 318.68 111.498 319.872 139.444 340.131C118.342 337.747 95.5293 332.385 77.2791 349.665C175.374 334.172 161.116 363.965 181.077 379.457C201.038 394.949 204.46 379.457 189.632 368.732ZM46.4926 261.479C40.7894 268.182 43.06 274.587 51.0445 281.738C36.9007 287.81 16.8254 275.779 6 294.846C18.9367 284.428 63.0211 285.909 63.0211 285.909C63.0211 285.909 50.9126 272.353 52.7661 265.65C54.6196 258.946 64.315 253.882 68.735 259.095C73.155 264.309 70.446 284.717 70.446 284.717C70.446 284.717 92.6777 256.712 106.946 259.095C87.5448 251.349 82.9716 267.437 76.7088 270.416C77.2684 264.458 78.2878 252.243 70.446 250.157C62.6041 248.072 52.1958 254.775 46.4926 261.479ZM235.828 273.991C238.679 268.033 263.203 265.65 264.343 276.375C265.484 287.1 262.632 291.867 258.64 297.23C268.906 296.038 279.742 278.758 294 298.421C282.023 287.1 251.796 304.976 251.796 304.976C251.796 304.976 262.062 283.078 257.5 277.567C252.937 272.055 244.667 273.991 240.96 279.95C237.253 285.908 240.96 303.784 240.96 303.784C240.96 303.784 211.874 281.738 198.187 284.717C222.14 275.183 217.577 289.484 235.257 295.442C234.117 287.1 232.976 279.95 235.828 273.991Z" fill-rule="evenodd" stroke="rgb(0,0,0)" stroke-opacity="0" stroke-width="1.000000" />
	<path id="vec" d="M46.4926 261.479C52.1958 254.775 62.6041 248.072 70.446 250.157C78.2878 252.243 77.2684 264.458 76.7088 270.416C82.9716 267.437 87.5448 251.349 106.946 259.095C92.6777 256.712 70.446 284.717 70.446 284.717C70.446 284.717 73.155 264.309 68.735 259.095C64.315 253.882 54.6196 258.946 52.7661 265.65C50.9126 272.353 63.0211 285.909 63.0211 285.909C63.0211 285.909 18.9367 284.428 6 294.846C16.8254 275.779 36.9007 287.81 51.0445 281.738C43.06 274.587 40.7894 268.182 46.4926 261.479Z" fill="rgb(222,74,74)" fill-rule="evenodd" />
	<path id="vec" d="M46.4926 261.479C52.1958 254.775 62.6041 248.072 70.446 250.157C78.2878 252.243 77.2684 264.458 76.7088 270.416C82.9716 267.437 87.5448 251.349 106.946 259.095C92.6777 256.712 70.446 284.717 70.446 284.717C70.446 284.717 73.155 264.309 68.735 259.095C64.315 253.882 54.6196 258.946 52.7661 265.65C50.9126 272.353 63.0211 285.909 63.0211 285.909C63.0211 285.909 18.9367 284.428 6 294.846C16.8254 275.779 36.9007 287.81 51.0445 281.738C43.06 274.587 40.7894 268.182 46.4926 261.479Z" fill="rgb(118,182,216)" fill-rule="evenodd" />
	<path id="vec" d="M32.2239 76.7648C47.6225 83.3191 56.1773 70.2104 56.1773 70.2104C60.5498 72.7924 60.1696 80.3399 65.3024 77.9565C70.4353 75.5731 60.1696 58.2934 69.865 58.2934C79.5603 58.2934 78.4197 55.91 77.8494 80.3399C62.4508 94.6403 25.9505 79.744 39.0678 97.0237C52.1851 114.303 56.1773 92.8528 82.9823 94.6403C104.654 96.4279 96.6699 107.749 105.795 97.0237C114.92 86.2984 92.1074 85.7026 89.2558 83.3191C86.4042 73.1897 89.2558 70.8063 89.2558 61.2726C106.365 56.5058 130.889 68.4229 122.905 51.739C116.061 37.4386 110.928 49.3556 94.3887 44.5888C96.6699 37.4386 104.084 31.4801 90.9667 16.5838C77.8494 1.68754 76.1384 37.4386 77.8494 46.9722C71.0056 49.9515 66.443 48.7598 61.3102 49.9515C61.3102 45.1847 56.1773 35.3531 52.1851 37.4386C48.1929 39.5241 37.3568 48.7598 45.3413 58.2934C40.7787 66.6353 16.8254 70.2104 32.2239 76.7648ZM117.772 110.132C121.764 111.324 133.17 120.262 122.905 125.625C98.9512 118.474 63.5915 121.454 25.9505 127.412C18.5364 123.837 27.0912 117.878 29.3724 113.112C35.0756 113.708 108.076 111.92 117.772 110.132ZM189.632 368.732C184.3 364.875 189.632 356.815 189.632 348.473C174.803 327.022 172.202 309.625 181.077 307.955C211.804 302.171 209.023 326.426 258.64 305.572C218.718 310.338 193.054 301.401 191.343 290.675C189.632 279.95 187.351 243.007 220.429 227.515C173.663 234.069 184.499 278.162 181.077 291.867C179.936 311.927 147.999 284.717 177.655 349.665C164.538 351.452 154.272 349.664 156.553 302.592C156.553 302.592 177.655 276.971 166.819 261.479C161.116 275.779 156.553 276.971 156.553 276.971C156.553 276.971 156.741 209.635 231.835 212.619C219.859 202.489 181.077 193.765 154.272 242.411C161.116 223.94 199.897 119.666 270.047 220.365C270.047 207.852 254.648 164.951 213.585 162.567C172.522 160.184 136.592 220.365 144.577 305.572C133.741 276.971 116.061 188.785 197.046 154.225C147.999 153.573 117.772 212.619 129.178 295.442C101.232 198.914 154.272 154.225 166.819 108.345C179.366 62.4643 164.538 35.6511 129.178 15.988C147.999 43.993 165.678 56.5059 154.272 102.982C142.866 149.459 124.045 173.889 107.506 223.94C104.654 207.852 118.912 140.521 70.4353 159.588C104.091 167.251 99.5215 186.401 96.0996 207.852C89.8261 203.085 55.0367 153.034 24.8098 228.707C63.5914 169.122 93.4646 218.463 101.232 234.069C108.647 248.966 109.787 279.354 116.631 290.675C113.209 288.292 69.2946 277.567 56.7476 294.25C88.6854 289.484 118.912 295.442 147.999 334.172C127.873 317.839 99.5215 299.613 70.4353 321.66C105.795 318.68 111.498 319.872 139.444 340.131C118.342 337.747 95.5293 332.385 77.2791 349.665C175.374 334.172 161.116 363.965 181.077 379.457C201.038 394.949 204.46 379.457 189.632 368.732ZM46.4926 261.479C40.7894 268.182 43.06 274.587 51.0445 281.738C36.9007 287.81 16.8254 275.779 6 294.846C18.9367 284.428 63.0211 285.909 63.0211 285.909C63.0211 285.909 50.9126 272.353 52.7661 265.65C54.6196 258.946 64.315 253.882 68.735 259.095C73.155 264.309 70.446 284.717 70.446 284.717C70.446 284.717 92.6777 256.712 106.946 259.095C87.5448 251.349 82.9716 267.437 76.7088 270.416C77.2684 264.458 78.2878 252.243 70.446 250.157C62.6041 248.072 52.1958 254.775 46.4926 261.479ZM235.828 273.991C238.679 268.033 263.203 265.65 264.343 276.375C265.484 287.1 262.632 291.867 258.64 297.23C268.906 296.038 279.742 278.758 294 298.421C282.023 287.1 251.796 304.976 251.796 304.976C251.796 304.976 262.062 283.078 257.5 277.567C252.937 272.055 244.667 273.991 240.96 279.95C237.253 285.908 240.96 303.784 240.96 303.784C240.96 303.784 211.874 281.738 198.187 284.717C222.14 275.183 217.577 289.484 235.257 295.442C234.117 287.1 232.976 279.95 235.828 273.991Z" fill-rule="evenodd" stroke="rgb(0,0,0)" stroke-opacity="0" stroke-width="1.000000" />
	<path id="vec" d="M235.828 273.991C232.976 279.95 234.117 287.1 235.257 295.442C217.577 289.484 222.14 275.183 198.187 284.717C211.874 281.738 240.96 303.784 240.96 303.784C240.96 303.784 237.253 285.908 240.96 279.95C244.667 273.991 252.937 272.055 257.5 277.567C262.062 283.078 251.796 304.976 251.796 304.976C251.796 304.976 282.023 287.1 294 298.421C279.742 278.758 268.906 296.038 258.64 297.23C262.632 291.867 265.484 287.1 264.343 276.375C263.203 265.65 238.679 268.033 235.828 273.991Z" fill="rgb(222,74,74)" fill-rule="evenodd" />
	<path id="vec" d="M235.828 273.991C232.976 279.95 234.117 287.1 235.257 295.442C217.577 289.484 222.14 275.183 198.187 284.717C211.874 281.738 240.96 303.784 240.96 303.784C240.96 303.784 237.253 285.908 240.96 279.95C244.667 273.991 252.937 272.055 257.5 277.567C262.062 283.078 251.796 304.976 251.796 304.976C251.796 304.976 282.023 287.1 294 298.421C279.742 278.758 268.906 296.038 258.64 297.23C262.632 291.867 265.484 287.1 264.343 276.375C263.203 265.65 238.679 268.033 235.828 273.991Z" fill="rgb(118,182,216)" fill-rule="evenodd" />
	<path id="vec" d="M32.2239 76.7648C47.6225 83.3191 56.1773 70.2104 56.1773 70.2104C60.5498 72.7924 60.1696 80.3399 65.3024 77.9565C70.4353 75.5731 60.1696 58.2934 69.865 58.2934C79.5603 58.2934 78.4197 55.91 77.8494 80.3399C62.4508 94.6403 25.9505 79.744 39.0678 97.0237C52.1851 114.303 56.1773 92.8528 82.9823 94.6403C104.654 96.4279 96.6699 107.749 105.795 97.0237C114.92 86.2984 92.1074 85.7026 89.2558 83.3191C86.4042 73.1897 89.2558 70.8063 89.2558 61.2726C106.365 56.5058 130.889 68.4229 122.905 51.739C116.061 37.4386 110.928 49.3556 94.3887 44.5888C96.6699 37.4386 104.084 31.4801 90.9667 16.5838C77.8494 1.68754 76.1384 37.4386 77.8494 46.9722C71.0056 49.9515 66.443 48.7598 61.3102 49.9515C61.3102 45.1847 56.1773 35.3531 52.1851 37.4386C48.1929 39.5241 37.3568 48.7598 45.3413 58.2934C40.7787 66.6353 16.8254 70.2104 32.2239 76.7648ZM117.772 110.132C121.764 111.324 133.17 120.262 122.905 125.625C98.9512 118.474 63.5915 121.454 25.9505 127.412C18.5364 123.837 27.0912 117.878 29.3724 113.112C35.0756 113.708 108.076 111.92 117.772 110.132ZM189.632 368.732C184.3 364.875 189.632 356.815 189.632 348.473C174.803 327.022 172.202 309.625 181.077 307.955C211.804 302.171 209.023 326.426 258.64 305.572C218.718 310.338 193.054 301.401 191.343 290.675C189.632 279.95 187.351 243.007 220.429 227.515C173.663 234.069 184.499 278.162 181.077 291.867C179.936 311.927 147.999 284.717 177.655 349.665C164.538 351.452 154.272 349.664 156.553 302.592C156.553 302.592 177.655 276.971 166.819 261.479C161.116 275.779 156.553 276.971 156.553 276.971C156.553 276.971 156.741 209.635 231.835 212.619C219.859 202.489 181.077 193.765 154.272 242.411C161.116 223.94 199.897 119.666 270.047 220.365C270.047 207.852 254.648 164.951 213.585 162.567C172.522 160.184 136.592 220.365 144.577 305.572C133.741 276.971 116.061 188.785 197.046 154.225C147.999 153.573 117.772 212.619 129.178 295.442C101.232 198.914 154.272 154.225 166.819 108.345C179.366 62.4643 164.538 35.6511 129.178 15.988C147.999 43.993 165.678 56.5059 154.272 102.982C142.866 149.459 124.045 173.889 107.506 223.94C104.654 207.852 118.912 140.521 70.4353 159.588C104.091 167.251 99.5215 186.401 96.0996 207.852C89.8261 203.085 55.0367 153.034 24.8098 228.707C63.5914 169.122 93.4646 218.463 101.232 234.069C108.647 248.966 109.787 279.354 116.631 290.675C113.209 288.292 69.2946 277.567 56.7476 294.25C88.6854 289.484 118.912 295.442 147.999 334.172C127.873 317.839 99.5215 299.613 70.4353 321.66C105.795 318.68 111.498 319.872 139.444 340.131C118.342 337.747 95.5293 332.385 77.2791 349.665C175.374 334.172 161.116 363.965 181.077 379.457C201.038 394.949 204.46 379.457 189.632 368.732ZM46.4926 261.479C40.7894 268.182 43.06 274.587 51.0445 281.738C36.9007 287.81 16.8254 275.779 6 294.846C18.9367 284.428 63.0211 285.909 63.0211 285.909C63.0211 285.909 50.9126 272.353 52.7661 265.65C54.6196 258.946 64.315 253.882 68.735 259.095C73.155 264.309 70.446 284.717 70.446 284.717C70.446 284.717 92.6777 256.712 106.946 259.095C87.5448 251.349 82.9716 267.437 76.7088 270.416C77.2684 264.458 78.2878 252.243 70.446 250.157C62.6041 248.072 52.1958 254.775 46.4926 261.479ZM235.828 273.991C238.679 268.033 263.203 265.65 264.343 276.375C265.484 287.1 262.632 291.867 258.64 297.23C268.906 296.038 279.742 278.758 294 298.421C282.023 287.1 251.796 304.976 251.796 304.976C251.796 304.976 262.062 283.078 257.5 277.567C252.937 272.055 244.667 273.991 240.96 279.95C237.253 285.908 240.96 303.784 240.96 303.784C240.96 303.784 211.874 281.738 198.187 284.717C222.14 275.183 217.577 289.484 235.257 295.442C234.117 287.1 232.976 279.95 235.828 273.991Z" fill-rule="evenodd" stroke="rgb(0,0,0)" stroke-opacity="0" stroke-width="1.000000" />
</svg>
