<svg viewBox="0 0 300 400" xmlns="http://www.w3.org/2000/svg" xmlns:xlink="http://www.w3.org/1999/xlink" width="300.000000" height="400.000000" fill="none">
	<rect id="rec" width="300.000000" height="400.000000" x="0.000000" y="0.000000" fill="rgb(255,255,255)" fill-opacity="0" />
	<path id="vec" d="M48.5 47.5C38.875 45.25 37.5 17.5 48.5 17.5C59.5 17.5 47.375 30.75 57 33C66.625 35.25 84.5 24.5 84.5 24.5C84.5 24.5 58.125 49.75 48.5 47.5Z" fill="rgb(222,74,74)" fill-rule="evenodd" />
	<path id="vec" d="M48.5 47.5C58.125 49.75 84.5 24.5 84.5 24.5C84.5 24.5 66.625 35.25 57 33C47.375 30.75 59.5 17.5 48.5 17.5C37.5 17.5 38.875 45.25 48.5 47.5ZM32.5 80.5C40.75 82.375 57 59 57 59C57 59 50.75 64.875 42.5 63C34.25 61.125 35.6173 46.1738 30.5 49.5C20.5 56 24.25 78.625 32.5 80.5ZM58.5 77C66.5 80.5 75.5 73.5 89.5 59C115.508 58.9422 84.5 115.5 81 125.5C86 130.5 92 117.5 98 115.5C98 117.5 93 125.5 100 120C117 106.5 117 98 117 86.5C117 75 113.5 57.5 117 51.5C124.5 49 134.5 60.5 140 53C137.5 42.5 127.5 42.5 120 41C108.5 45.5 109 53.5 102 49.5C95 45.5 114 37 117 27.5C116.5 18.25 100 10 95 10C93 47.5 69 62 58.5 77ZM142.5 390C142.5 390 141 380 148 377C155 374 157 382.5 157 382.5C157 382.5 161 378.5 159.5 372C158 365.5 153.5 367 153.5 367L153.5 340.5C153.5 340.5 158 336 158 329.5C158 323 153.5 317.5 153.5 317.5L155.5 284C155.5 284 163 278.625 163 274C163 269.375 157 266 157 266L161.5 218C161.5 218 166.625 217 167.5 213C168.375 209 163.5 204 163.5 204C163.5 204 176.5 144.875 176 99.5C175.5 54.125 161.5 22.5 161.5 22.5C161.5 22.5 166.427 61.9292 163.927 106.929C161.427 151.929 151.5 202.5 151.5 202.5C151.5 202.5 146 208 146 211C146 214 149 216 149 216L146.5 266C146.5 266 139.5 268.5 139.5 274C139.5 279.5 144.5 282.5 144.5 282.5L142.5 317.5C142.5 317.5 136 322 136 329.5C136 337 140.5 340.5 140.5 340.5L140.5 367C140.5 367 134.5 372.875 134.5 379C134.5 385.125 142.5 390 142.5 390ZM98.5 379C106.5 375 107 392 109 395.5C110 392 108.5 384.5 114 383.5C119.5 382.5 119.5 399.5 122 390C124.5 380.5 122 346.5 122 346.5C122 346.5 127 341.25 126.5 337C126 332.75 120 329.5 120 329.5L115.5 306C115.5 306 118 296.875 115.5 291C113 285.125 105.5 282.5 105.5 282.5C105.5 282.5 95.1348 262.726 90 255.5C88 255.5 85.5 254.5 82.5 257C88.5 267 96 282.5 96 282.5C96 282.5 93.625 294 96 300.5C98.375 307 105.5 308.5 105.5 308.5L108 332.5C108 332.5 104.75 338.5 105.5 342.5C106.25 346.5 111.5 348.5 111.5 348.5L109 375L100.5 367C100.5 367 96.375 353.125 84 346.5C71.625 339.875 51 340.5 51 340.5C51 340.5 70.25 349.625 79.5 357.5C88.75 365.375 88 372 88 372C88 372 84.875 379.125 86 384.5C87.125 389.875 92.5 393.5 92.5 393.5C92.5 393.5 90.5 383 98.5 379ZM51 222C39 234.5 26 268.5 26 268.5C26 268.5 44 263 57 238C58.3333 262.333 63 308.5 63 308.5C63 308.5 79.5 248 70 228C98.5 248 126.5 258.5 126.5 258.5C126.5 258.5 107 229 84 216C98.5 209 126.5 186 126.5 186C126.5 186 85.987 188.571 72.5 197C68.5 199.5 68 209 68 209C68 209 73.5 212.125 73.5 215C73.5 217.875 72 222 68 222.5C64 223 60 221 60 218C60 215 60 211 60 211C60 211 51.7375 210.463 46.5 211C27 213 11.5 234 11.5 234C11.5 234 38 233.5 51 222ZM173 374C177 371.899 178.5 375 180.5 377C184.5 375 183.381 371.399 187.506 371.899C191.631 372.399 197 379 197 379C197 379 204 379.5 206 368C208 356.5 206.375 345.125 217 332.5C227.625 319.875 248.5 317.5 248.5 317.5C248.5 317.5 228.875 312.625 213.5 325C198.125 337.375 192 363.5 187 367C176 368 184.5 329.5 184.5 329.5C184.5 329.5 192.5 326.25 193.5 322C194.5 317.75 187 312.5 187 312.5L195.5 288C195.5 288 202.375 285.375 204 281C205.625 276.625 202 269.5 202 269.5C202 269.5 218.5 238 222 226.5C221 223.5 216 220 212.5 222C205.375 231.375 193.5 264 193.5 264C193.5 264 184.75 267.625 182.5 273C180.25 278.375 184.5 285.5 184.5 285.5L176 311.5C176 311.5 171 312.25 169.5 317.5C168 322.75 172 327 172 327L169.5 364.5C169.5 364.5 163.875 367.5 164.5 372C165.125 376.5 172 382.5 172 382.5C172 382.5 169 376.101 173 374ZM236.5 279C236.5 279 250 222 246.5 197C258.5 209 280 216 280 216C280 216 271.5 193 252 182C265 175.5 283.5 158.5 283.5 158.5C283.5 158.5 258.25 161.125 246.5 165C234.75 168.875 234 177 239.5 177C245 177 247 181.25 247.5 186C248 190.75 243.5 193 238.5 193C233.5 193 231 189 231 185C231 181 225.375 172.625 213.5 177C201.625 181.375 180.5 199.5 180.5 199.5C180.5 199.5 199 192 209 189C198.5 199.5 197 228 197 228C197 228 213.5 205.5 228 197C226.5 224 236.5 279 236.5 279Z" fill-rule="evenodd" stroke="rgb(0,0,0)" stroke-opacity="0" stroke-width="1.000000" />
	<path id="vec" d="M32.5 80.5C24.25 78.625 20.5 56 30.5 49.5C35.6173 46.1738 34.25 61.125 42.5 63C50.75 64.875 57 59 57 59C57 59 40.75 82.375 32.5 80.5Z" fill="rgb(222,74,74)" fill-rule="evenodd" />
	<path id="vec" d="M32.5 80.5C24.25 78.625 20.5 56 30.5 49.5C35.6173 46.1738 34.25 61.125 42.5 63C50.75 64.875 57 59 57 59C57 59 40.75 82.375 32.5 80.5Z" fill="rgb(222,74,74)" fill-rule="evenodd" />
	<path id="vec" d="M48.5 47.5C58.125 49.75 84.5 24.5 84.5 24.5C84.5 24.5 66.625 35.25 57 33C47.375 30.75 59.5 17.5 48.5 17.5C37.5 17.5 38.875 45.25 48.5 47.5ZM32.5 80.5C40.75 82.375 57 59 57 59C57 59 50.75 64.875 42.5 63C34.25 61.125 35.6173 46.1738 30.5 49.5C20.5 56 24.25 78.625 32.5 80.5ZM58.5 77C66.5 80.5 75.5 73.5 89.5 59C115.508 58.9422 84.5 115.5 81 125.5C86 130.5 92 117.5 98 115.5C98 117.5 93 125.5 100 120C117 106.5 117 98 117 86.5C117 75 113.5 57.5 117 51.5C124.5 49 134.5 60.5 140 53C137.5 42.5 127.5 42.5 120 41C108.5 45.5 109 53.5 102 49.5C95 45.5 114 37 117 27.5C116.5 18.25 100 10 95 10C93 47.5 69 62 58.5 77ZM142.5 390C142.5 390 141 380 148 377C155 374 157 382.5 157 382.5C157 382.5 161 378.5 159.5 372C158 365.5 153.5 367 153.5 367L153.5 340.5C153.5 340.5 158 336 158 329.5C158 323 153.5 317.5 153.5 317.5L155.5 284C155.5 284 163 278.625 163 274C163 269.375 157 266 157 266L161.5 218C161.5 218 166.625 217 167.5 213C168.375 209 163.5 204 163.5 204C163.5 204 176.5 144.875 176 99.5C175.5 54.125 161.5 22.5 161.5 22.5C161.5 22.5 166.427 61.9292 163.927 106.929C161.427 151.929 151.5 202.5 151.5 202.5C151.5 202.5 146 208 146 211C146 214 149 216 149 216L146.5 266C146.5 266 139.5 268.5 139.5 274C139.5 279.5 144.5 282.5 144.5 282.5L142.5 317.5C142.5 317.5 136 322 136 329.5C136 337 140.5 340.5 140.5 340.5L140.5 367C140.5 367 134.5 372.875 134.5 379C134.5 385.125 142.5 390 142.5 390ZM98.5 379C106.5 375 107 392 109 395.5C110 392 108.5 384.5 114 383.5C119.5 382.5 119.5 399.5 122 390C124.5 380.5 122 346.5 122 346.5C122 346.5 127 341.25 126.5 337C126 332.75 120 329.5 120 329.5L115.5 306C115.5 306 118 296.875 115.5 291C113 285.125 105.5 282.5 105.5 282.5C105.5 282.5 95.1348 262.726 90 255.5C88 255.5 85.5 254.5 82.5 257C88.5 267 96 282.5 96 282.5C96 282.5 93.625 294 96 300.5C98.375 307 105.5 308.5 105.5 308.5L108 332.5C108 332.5 104.75 338.5 105.5 342.5C106.25 346.5 111.5 348.5 111.5 348.5L109 375L100.5 367C100.5 367 96.375 353.125 84 346.5C71.625 339.875 51 340.5 51 340.5C51 340.5 70.25 349.625 79.5 357.5C88.75 365.375 88 372 88 372C88 372 84.875 379.125 86 384.5C87.125 389.875 92.5 393.5 92.5 393.5C92.5 393.5 90.5 383 98.5 379ZM51 222C39 234.5 26 268.5 26 268.5C26 268.5 44 263 57 238C58.3333 262.333 63 308.5 63 308.5C63 308.5 79.5 248 70 228C98.5 248 126.5 258.5 126.5 258.5C126.5 258.5 107 229 84 216C98.5 209 126.5 186 126.5 186C126.5 186 85.987 188.571 72.5 197C68.5 199.5 68 209 68 209C68 209 73.5 212.125 73.5 215C73.5 217.875 72 222 68 222.5C64 223 60 221 60 218C60 215 60 211 60 211C60 211 51.7375 210.463 46.5 211C27 213 11.5 234 11.5 234C11.5 234 38 233.5 51 222ZM173 374C177 371.899 178.5 375 180.5 377C184.5 375 183.381 371.399 187.506 371.899C191.631 372.399 197 379 197 379C197 379 204 379.5 206 368C208 356.5 206.375 345.125 217 332.5C227.625 319.875 248.5 317.5 248.5 317.5C248.5 317.5 228.875 312.625 213.5 325C198.125 337.375 192 363.5 187 367C176 368 184.5 329.5 184.5 329.5C184.5 329.5 192.5 326.25 193.5 322C194.5 317.75 187 312.5 187 312.5L195.5 288C195.5 288 202.375 285.375 204 281C205.625 276.625 202 269.5 202 269.5C202 269.5 218.5 238 222 226.5C221 223.5 216 220 212.5 222C205.375 231.375 193.5 264 193.5 264C193.5 264 184.75 267.625 182.5 273C180.25 278.375 184.5 285.5 184.5 285.5L176 311.5C176 311.5 171 312.25 169.5 317.5C168 322.75 172 327 172 327L169.5 364.5C169.5 364.5 163.875 367.5 164.5 372C165.125 376.5 172 382.5 172 382.5C172 382.5 169 376.101 173 374ZM236.5 279C236.5 279 250 222 246.5 197C258.5 209 280 216 280 216C280 216 271.5 193 252 182C265 175.5 283.5 158.5 283.5 158.5C283.5 158.5 258.25 161.125 246.5 165C234.75 168.875 234 177 239.5 177C245 177 247 181.25 247.5 186C248 190.75 243.5 193 238.5 193C233.5 193 231 189 231 185C231 181 225.375 172.625 213.5 177C201.625 181.375 180.5 199.5 180.5 199.5C180.5 199.5 199 192 209 189C198.5 199.5 197 228 197 228C197 228 213.5 205.5 228 197C226.5 224 236.5 279 236.5 279Z" fill-rule="evenodd" stroke="rgb(0,0,0)" stroke-opacity="0" stroke-width="1.000000" />
	<path id="vec" d="M58.5 77C69 62 93 47.5 95 10C100 10 116.5 18.25 117 27.5C114 37 95 45.5 102 49.5C109 53.5 108.5 45.5 120 41C127.5 42.5 137.5 42.5 140 53C134.5 60.5 124.5 49 117 51.5C113.5 57.5 117 75 117 86.5C117 98 117 106.5 100 120C93 125.5 98 117.5 98 115.5C92 117.5 86 130.5 81 125.5C84.5 115.5 115.508 58.9422 89.5 59C75.5 73.5 66.5 80.5 58.5 77Z" fill="rgb(222,74,74)" fill-rule="evenodd" />
	<path id="vec" d="M58.5 77C69 62 93 47.5 95 10C100 10 116.5 18.25 117 27.5C114 37 95 45.5 102 49.5C109 53.5 108.5 45.5 120 41C127.5 42.5 137.5 42.5 140 53C134.5 60.5 124.5 49 117 51.5C113.5 57.5 117 75 117 86.5C117 98 117 106.5 100 120C93 125.5 98 117.5 98 115.5C92 117.5 86 130.5 81 125.5C84.5 115.5 115.508 58.9422 89.5 59C75.5 73.5 66.5 80.5 58.5 77Z" fill="rgb(222,74,74)" fill-rule="evenodd" />
	<path id="vec" d="M48.5 47.5C58.125 49.75 84.5 24.5 84.5 24.5C84.5 24.5 66.625 35.25 57 33C47.375 30.75 59.5 17.5 48.5 17.5C37.5 17.5 38.875 45.25 48.5 47.5ZM32.5 80.5C40.75 82.375 57 59 57 59C57 59 50.75 64.875 42.5 63C34.25 61.125 35.6173 46.1738 30.5 49.5C20.5 56 24.25 78.625 32.5 80.5ZM58.5 77C66.5 80.5 75.5 73.5 89.5 59C115.508 58.9422 84.5 115.5 81 125.5C86 130.5 92 117.5 98 115.5C98 117.5 93 125.5 100 120C117 106.5 117 98 117 86.5C117 75 113.5 57.5 117 51.5C124.5 49 134.5 60.5 140 53C137.5 42.5 127.5 42.5 120 41C108.5 45.5 109 53.5 102 49.5C95 45.5 114 37 117 27.5C116.5 18.25 100 10 95 10C93 47.5 69 62 58.5 77ZM142.5 390C142.5 390 141 380 148 377C155 374 157 382.5 157 382.5C157 382.5 161 378.5 159.5 372C158 365.5 153.5 367 153.5 367L153.5 340.5C153.5 340.5 158 336 158 329.5C158 323 153.5 317.5 153.5 317.5L155.5 284C155.5 284 163 278.625 163 274C163 269.375 157 266 157 266L161.5 218C161.5 218 166.625 217 167.5 213C168.375 209 163.5 204 163.5 204C163.5 204 176.5 144.875 176 99.5C175.5 54.125 161.5 22.5 161.5 22.5C161.5 22.5 166.427 61.9292 163.927 106.929C161.427 151.929 151.5 202.5 151.5 202.5C151.5 202.5 146 208 146 211C146 214 149 216 149 216L146.5 266C146.5 266 139.5 268.5 139.5 274C139.5 279.5 144.5 282.5 144.5 282.5L142.5 317.5C142.5 317.5 136 322 136 329.5C136 337 140.5 340.5 140.5 340.5L140.5 367C140.5 367 134.5 372.875 134.5 379C134.5 385.125 142.5 390 142.5 390ZM98.5 379C106.5 375 107 392 109 395.5C110 392 108.5 384.5 114 383.5C119.5 382.5 119.5 399.5 122 390C124.5 380.5 122 346.5 122 346.5C122 346.5 127 341.25 126.5 337C126 332.75 120 329.5 120 329.5L115.5 306C115.5 306 118 296.875 115.5 291C113 285.125 105.5 282.5 105.5 282.5C105.5 282.5 95.1348 262.726 90 255.5C88 255.5 85.5 254.5 82.5 257C88.5 267 96 282.5 96 282.5C96 282.5 93.625 294 96 300.5C98.375 307 105.5 308.5 105.5 308.5L108 332.5C108 332.5 104.75 338.5 105.5 342.5C106.25 346.5 111.5 348.5 111.5 348.5L109 375L100.5 367C100.5 367 96.375 353.125 84 346.5C71.625 339.875 51 340.5 51 340.5C51 340.5 70.25 349.625 79.5 357.5C88.75 365.375 88 372 88 372C88 372 84.875 379.125 86 384.5C87.125 389.875 92.5 393.5 92.5 393.5C92.5 393.5 90.5 383 98.5 379ZM51 222C39 234.5 26 268.5 26 268.5C26 268.5 44 263 57 238C58.3333 262.333 63 308.5 63 308.5C63 308.5 79.5 248 70 228C98.5 248 126.5 258.5 126.5 258.5C126.5 258.5 107 229 84 216C98.5 209 126.5 186 126.5 186C126.5 186 85.987 188.571 72.5 197C68.5 199.5 68 209 68 209C68 209 73.5 212.125 73.5 215C73.5 217.875 72 222 68 222.5C64 223 60 221 60 218C60 215 60 211 60 211C60 211 51.7375 210.463 46.5 211C27 213 11.5 234 11.5 234C11.5 234 38 233.5 51 222ZM173 374C177 371.899 178.5 375 180.5 377C184.5 375 183.381 371.399 187.506 371.899C191.631 372.399 197 379 197 379C197 379 204 379.5 206 368C208 356.5 206.375 345.125 217 332.5C227.625 319.875 248.5 317.5 248.5 317.5C248.5 317.5 228.875 312.625 213.5 325C198.125 337.375 192 363.5 187 367C176 368 184.5 329.5 184.5 329.5C184.5 329.5 192.5 326.25 193.5 322C194.5 317.75 187 312.5 187 312.5L195.5 288C195.5 288 202.375 285.375 204 281C205.625 276.625 202 269.5 202 269.5C202 269.5 218.5 238 222 226.5C221 223.5 216 220 212.5 222C205.375 231.375 193.5 264 193.5 264C193.5 264 184.75 267.625 182.5 273C180.25 278.375 184.5 285.5 184.5 285.5L176 311.5C176 311.5 171 312.25 169.5 317.5C168 322.75 172 327 172 327L169.5 364.5C169.5 364.5 163.875 367.5 164.5 372C165.125 376.5 172 382.5 172 382.5C172 382.5 169 376.101 173 374ZM236.5 279C236.5 279 250 222 246.5 197C258.5 209 280 216 280 216C280 216 271.5 193 252 182C265 175.5 283.5 158.5 283.5 158.5C283.5 158.5 258.25 161.125 246.5 165C234.75 168.875 234 177 239.5 177C245 177 247 181.25 247.5 186C248 190.75 243.5 193 238.5 193C233.5 193 231 189 231 185C231 181 225.375 172.625 213.5 177C201.625 181.375 180.5 199.5 180.5 199.5C180.5 199.5 199 192 209 189C198.5 199.5 197 228 197 228C197 228 213.5 205.5 228 197C226.5 224 236.5 279 236.5 279Z" fill-rule="evenodd" stroke="rgb(0,0,0)" stroke-opacity="0" stroke-width="1.000000" />
	<path id="vec" d="M142.5 390C142.5 390 134.5 385.125 134.5 379C134.5 372.875 140.5 367 140.5 367L140.5 340.5C140.5 340.5 136 337 136 329.5C136 322 142.5 317.5 142.5 317.5L144.5 282.5C144.5 282.5 139.5 279.5 139.5 274C139.5 268.5 146.5 266 146.5 266L149 216C149 216 146 214 146 211C146 208 151.5 202.5 151.5 202.5C151.5 202.5 161.427 151.929 163.927 106.929C166.427 61.9292 161.5 22.5 161.5 22.5C161.5 22.5 175.5 54.125 176 99.5C176.5 144.875 163.5 204 163.5 204C163.5 204 168.375 209 167.5 213C166.625 217 161.5 218 161.5 218L157 266C157 266 163 269.375 163 274C163 278.625 155.5 284 155.5 284L153.5 317.5C153.5 317.5 158 323 158 329.5C158 336 153.5 340.5 153.5 340.5L153.5 367C153.5 367 158 365.5 159.5 372C161 378.5 157 382.5 157 382.5C157 382.5 155 374 148 377C141 380 142.5 390 142.5 390Z" fill="rgb(222,74,74)" fill-rule="evenodd" />
	<path id="vec" d="M142.5 390C142.5 390 134.5 385.125 134.5 379C134.5 372.875 140.5 367 140.5 367L140.5 340.5C140.5 340.5 136 337 136 329.5C136 322 142.5 317.5 142.5 317.5L144.5 282.5C144.5 282.5 139.5 279.5 139.5 274C139.5 268.5 146.5 266 146.5 266L149 216C149 216 146 214 146 211C146 208 151.5 202.5 151.5 202.5C151.5 202.5 161.427 151.929 163.927 106.929C166.427 61.9292 161.5 22.5 161.5 22.5C161.5 22.5 175.5 54.125 176 99.5C176.5 144.875 163.5 204 163.5 204C163.5 204 168.375 209 167.5 213C166.625 217 161.5 218 161.5 218L157 266C157 266 163 269.375 163 274C163 278.625 155.5 284 155.5 284L153.5 317.5C153.5 317.5 158 323 158 329.5C158 336 153.5 340.5 153.5 340.5L153.5 367C153.5 367 158 365.5 159.5 372C161 378.5 157 382.5 157 382.5C157 382.5 155 374 148 377C141 380 142.5 390 142.5 390Z" fill="rgb(77,148,53)" fill-rule="evenodd" />
	<path id="vec" d="M48.5 47.5C58.125 49.75 84.5 24.5 84.5 24.5C84.5 24.5 66.625 35.25 57 33C47.375 30.75 59.5 17.5 48.5 17.5C37.5 17.5 38.875 45.25 48.5 47.5ZM32.5 80.5C40.75 82.375 57 59 57 59C57 59 50.75 64.875 42.5 63C34.25 61.125 35.6173 46.1738 30.5 49.5C20.5 56 24.25 78.625 32.5 80.5ZM58.5 77C66.5 80.5 75.5 73.5 89.5 59C115.508 58.9422 84.5 115.5 81 125.5C86 130.5 92 117.5 98 115.5C98 117.5 93 125.5 100 120C117 106.5 117 98 117 86.5C117 75 113.5 57.5 117 51.5C124.5 49 134.5 60.5 140 53C137.5 42.5 127.5 42.5 120 41C108.5 45.5 109 53.5 102 49.5C95 45.5 114 37 117 27.5C116.5 18.25 100 10 95 10C93 47.5 69 62 58.5 77ZM142.5 390C142.5 390 141 380 148 377C155 374 157 382.5 157 382.5C157 382.5 161 378.5 159.5 372C158 365.5 153.5 367 153.5 367L153.5 340.5C153.5 340.5 158 336 158 329.5C158 323 153.5 317.5 153.5 317.5L155.5 284C155.5 284 163 278.625 163 274C163 269.375 157 266 157 266L161.5 218C161.5 218 166.625 217 167.5 213C168.375 209 163.5 204 163.5 204C163.5 204 176.5 144.875 176 99.5C175.5 54.125 161.5 22.5 161.5 22.5C161.5 22.5 166.427 61.9292 163.927 106.929C161.427 151.929 151.5 202.5 151.5 202.5C151.5 202.5 146 208 146 211C146 214 149 216 149 216L146.5 266C146.5 266 139.5 268.5 139.5 274C139.5 279.5 144.5 282.5 144.5 282.5L142.5 317.5C142.5 317.5 136 322 136 329.5C136 337 140.5 340.5 140.5 340.5L140.5 367C140.5 367 134.5 372.875 134.5 379C134.5 385.125 142.5 390 142.5 390ZM98.5 379C106.5 375 107 392 109 395.5C110 392 108.5 384.5 114 383.5C119.5 382.5 119.5 399.5 122 390C124.5 380.5 122 346.5 122 346.5C122 346.5 127 341.25 126.5 337C126 332.75 120 329.5 120 329.5L115.5 306C115.5 306 118 296.875 115.5 291C113 285.125 105.5 282.5 105.5 282.5C105.5 282.5 95.1348 262.726 90 255.5C88 255.5 85.5 254.5 82.5 257C88.5 267 96 282.5 96 282.5C96 282.5 93.625 294 96 300.5C98.375 307 105.5 308.5 105.5 308.5L108 332.5C108 332.5 104.75 338.5 105.5 342.5C106.25 346.5 111.5 348.5 111.5 348.5L109 375L100.5 367C100.5 367 96.375 353.125 84 346.5C71.625 339.875 51 340.5 51 340.5C51 340.5 70.25 349.625 79.5 357.5C88.75 365.375 88 372 88 372C88 372 84.875 379.125 86 384.5C87.125 389.875 92.5 393.5 92.5 393.5C92.5 393.5 90.5 383 98.5 379ZM51 222C39 234.5 26 268.5 26 268.5C26 268.5 44 263 57 238C58.3333 262.333 63 308.5 63 308.5C63 308.5 79.5 248 70 228C98.5 248 126.5 258.5 126.5 258.5C126.5 258.5 107 229 84 216C98.5 209 126.5 186 126.5 186C126.5 186 85.987 188.571 72.5 197C68.5 199.5 68 209 68 209C68 209 73.5 212.125 73.5 215C73.5 217.875 72 222 68 222.5C64 223 60 221 60 218C60 215 60 211 60 211C60 211 51.7375 210.463 46.5 211C27 213 11.5 234 11.5 234C11.5 234 38 233.5 51 222ZM173 374C177 371.899 178.5 375 180.5 377C184.5 375 183.381 371.399 187.506 371.899C191.631 372.399 197 379 197 379C197 379 204 379.5 206 368C208 356.5 206.375 345.125 217 332.5C227.625 319.875 248.5 317.5 248.5 317.5C248.5 317.5 228.875 312.625 213.5 325C198.125 337.375 192 363.5 187 367C176 368 184.5 329.5 184.5 329.5C184.5 329.5 192.5 326.25 193.5 322C194.5 317.75 187 312.5 187 312.5L195.5 288C195.5 288 202.375 285.375 204 281C205.625 276.625 202 269.5 202 269.5C202 269.5 218.5 238 222 226.5C221 223.5 216 220 212.5 222C205.375 231.375 193.5 264 193.5 264C193.5 264 184.75 267.625 182.5 273C180.25 278.375 184.5 285.5 184.5 285.5L176 311.5C176 311.5 171 312.25 169.5 317.5C168 322.75 172 327 172 327L169.5 364.5C169.5 364.5 163.875 367.5 164.5 372C165.125 376.5 172 382.5 172 382.5C172 382.5 169 376.101 173 374ZM236.5 279C236.5 279 250 222 246.5 197C258.5 209 280 216 280 216C280 216 271.5 193 252 182C265 175.5 283.5 158.5 283.5 158.5C283.5 158.5 258.25 161.125 246.5 165C234.75 168.875 234 177 239.5 177C245 177 247 181.25 247.5 186C248 190.75 243.5 193 238.5 193C233.5 193 231 189 231 185C231 181 225.375 172.625 213.5 177C201.625 181.375 180.5 199.5 180.5 199.5C180.5 199.5 199 192 209 189C198.5 199.5 197 228 197 228C197 228 213.5 205.5 228 197C226.5 224 236.5 279 236.5 279Z" fill-rule="evenodd" stroke="rgb(0,0,0)" stroke-opacity="0" stroke-width="1.000000" />
	<path id="vec" d="M98.5 379C90.5 383 92.5 393.5 92.5 393.5C92.5 393.5 87.125 389.875 86 384.5C84.875 379.125 88 372 88 372C88 372 88.75 365.375 79.5 357.5C70.25 349.625 51 340.5 51 340.5C51 340.5 71.625 339.875 84 346.5C96.375 353.125 100.5 367 100.5 367L109 375L111.5 348.5C111.5 348.5 106.25 346.5 105.5 342.5C104.75 338.5 108 332.5 108 332.5L105.5 308.5C105.5 308.5 98.375 307 96 300.5C93.625 294 96 282.5 96 282.5C96 282.5 88.5 267 82.5 257C85.5 254.5 88 255.5 90 255.5C95.1348 262.726 105.5 282.5 105.5 282.5C105.5 282.5 113 285.125 115.5 291C118 296.875 115.5 306 115.5 306L120 329.5C120 329.5 126 332.75 126.5 337C127 341.25 122 346.5 122 346.5C122 346.5 124.5 380.5 122 390C119.5 399.5 119.5 382.5 114 383.5C108.5 384.5 110 392 109 395.5C107 392 106.5 375 98.5 379Z" fill="rgb(222,74,74)" fill-rule="evenodd" />
	<path id="vec" d="M98.5 379C90.5 383 92.5 393.5 92.5 393.5C92.5 393.5 87.125 389.875 86 384.5C84.875 379.125 88 372 88 372C88 372 88.75 365.375 79.5 357.5C70.25 349.625 51 340.5 51 340.5C51 340.5 71.625 339.875 84 346.5C96.375 353.125 100.5 367 100.5 367L109 375L111.5 348.5C111.5 348.5 106.25 346.5 105.5 342.5C104.75 338.5 108 332.5 108 332.5L105.5 308.5C105.5 308.5 98.375 307 96 300.5C93.625 294 96 282.5 96 282.5C96 282.5 88.5 267 82.5 257C85.5 254.5 88 255.5 90 255.5C95.1348 262.726 105.5 282.5 105.5 282.5C105.5 282.5 113 285.125 115.5 291C118 296.875 115.5 306 115.5 306L120 329.5C120 329.5 126 332.75 126.5 337C127 341.25 122 346.5 122 346.5C122 346.5 124.5 380.5 122 390C119.5 399.5 119.5 382.5 114 383.5C108.5 384.5 110 392 109 395.5C107 392 106.5 375 98.5 379Z" fill="rgb(77,148,53)" fill-rule="evenodd" />
	<path id="vec" d="M48.5 47.5C58.125 49.75 84.5 24.5 84.5 24.5C84.5 24.5 66.625 35.25 57 33C47.375 30.75 59.5 17.5 48.5 17.5C37.5 17.5 38.875 45.25 48.5 47.5ZM32.5 80.5C40.75 82.375 57 59 57 59C57 59 50.75 64.875 42.5 63C34.25 61.125 35.6173 46.1738 30.5 49.5C20.5 56 24.25 78.625 32.5 80.5ZM58.5 77C66.5 80.5 75.5 73.5 89.5 59C115.508 58.9422 84.5 115.5 81 125.5C86 130.5 92 117.5 98 115.5C98 117.5 93 125.5 100 120C117 106.5 117 98 117 86.5C117 75 113.5 57.5 117 51.5C124.5 49 134.5 60.5 140 53C137.5 42.5 127.5 42.5 120 41C108.5 45.5 109 53.5 102 49.5C95 45.5 114 37 117 27.5C116.5 18.25 100 10 95 10C93 47.5 69 62 58.5 77ZM142.5 390C142.5 390 141 380 148 377C155 374 157 382.5 157 382.5C157 382.5 161 378.5 159.5 372C158 365.5 153.5 367 153.5 367L153.5 340.5C153.5 340.5 158 336 158 329.5C158 323 153.5 317.5 153.5 317.5L155.5 284C155.5 284 163 278.625 163 274C163 269.375 157 266 157 266L161.5 218C161.5 218 166.625 217 167.5 213C168.375 209 163.5 204 163.5 204C163.5 204 176.5 144.875 176 99.5C175.5 54.125 161.5 22.5 161.5 22.5C161.5 22.5 166.427 61.9292 163.927 106.929C161.427 151.929 151.5 202.5 151.5 202.5C151.5 202.5 146 208 146 211C146 214 149 216 149 216L146.5 266C146.5 266 139.5 268.5 139.5 274C139.5 279.5 144.5 282.5 144.5 282.5L142.5 317.5C142.5 317.5 136 322 136 329.5C136 337 140.5 340.5 140.5 340.5L140.5 367C140.5 367 134.5 372.875 134.5 379C134.5 385.125 142.5 390 142.5 390ZM98.5 379C106.5 375 107 392 109 395.5C110 392 108.5 384.5 114 383.5C119.5 382.5 119.5 399.5 122 390C124.5 380.5 122 346.5 122 346.5C122 346.5 127 341.25 126.5 337C126 332.75 120 329.5 120 329.5L115.5 306C115.5 306 118 296.875 115.5 291C113 285.125 105.5 282.5 105.5 282.5C105.5 282.5 95.1348 262.726 90 255.5C88 255.5 85.5 254.5 82.5 257C88.5 267 96 282.5 96 282.5C96 282.5 93.625 294 96 300.5C98.375 307 105.5 308.5 105.5 308.5L108 332.5C108 332.5 104.75 338.5 105.5 342.5C106.25 346.5 111.5 348.5 111.5 348.5L109 375L100.5 367C100.5 367 96.375 353.125 84 346.5C71.625 339.875 51 340.5 51 340.5C51 340.5 70.25 349.625 79.5 357.5C88.75 365.375 88 372 88 372C88 372 84.875 379.125 86 384.5C87.125 389.875 92.5 393.5 92.5 393.5C92.5 393.5 90.5 383 98.5 379ZM51 222C39 234.5 26 268.5 26 268.5C26 268.5 44 263 57 238C58.3333 262.333 63 308.5 63 308.5C63 308.5 79.5 248 70 228C98.5 248 126.5 258.5 126.5 258.5C126.5 258.5 107 229 84 216C98.5 209 126.5 186 126.5 186C126.5 186 85.987 188.571 72.5 197C68.5 199.5 68 209 68 209C68 209 73.5 212.125 73.5 215C73.5 217.875 72 222 68 222.5C64 223 60 221 60 218C60 215 60 211 60 211C60 211 51.7375 210.463 46.5 211C27 213 11.5 234 11.5 234C11.5 234 38 233.5 51 222ZM173 374C177 371.899 178.5 375 180.5 377C184.5 375 183.381 371.399 187.506 371.899C191.631 372.399 197 379 197 379C197 379 204 379.5 206 368C208 356.5 206.375 345.125 217 332.5C227.625 319.875 248.5 317.5 248.5 317.5C248.5 317.5 228.875 312.625 213.5 325C198.125 337.375 192 363.5 187 367C176 368 184.5 329.5 184.5 329.5C184.5 329.5 192.5 326.25 193.5 322C194.5 317.75 187 312.5 187 312.5L195.5 288C195.5 288 202.375 285.375 204 281C205.625 276.625 202 269.5 202 269.5C202 269.5 218.5 238 222 226.5C221 223.5 216 220 212.5 222C205.375 231.375 193.5 264 193.5 264C193.5 264 184.75 267.625 182.5 273C180.25 278.375 184.5 285.5 184.5 285.5L176 311.5C176 311.5 171 312.25 169.5 317.5C168 322.75 172 327 172 327L169.5 364.5C169.5 364.5 163.875 367.5 164.5 372C165.125 376.5 172 382.5 172 382.5C172 382.5 169 376.101 173 374ZM236.5 279C236.5 279 250 222 246.5 197C258.5 209 280 216 280 216C280 216 271.5 193 252 182C265 175.5 283.5 158.5 283.5 158.5C283.5 158.5 258.25 161.125 246.5 165C234.75 168.875 234 177 239.5 177C245 177 247 181.25 247.5 186C248 190.75 243.5 193 238.5 193C233.5 193 231 189 231 185C231 181 225.375 172.625 213.5 177C201.625 181.375 180.5 199.5 180.5 199.5C180.5 199.5 199 192 209 189C198.5 199.5 197 228 197 228C197 228 213.5 205.5 228 197C226.5 224 236.5 279 236.5 279Z" fill-rule="evenodd" stroke="rgb(0,0,0)" stroke-opacity="0" stroke-width="1.000000" />
	<path id="vec" d="M51 222C38 233.5 11.5 234 11.5 234C11.5 234 27 213 46.5 211C51.7375 210.463 60 211 60 211C60 211 60 215 60 218C60 221 64 223 68 222.5C72 222 73.5 217.875 73.5 215C73.5 212.125 68 209 68 209C68 209 68.5 199.5 72.5 197C85.987 188.571 126.5 186 126.5 186C126.5 186 98.5 209 84 216C107 229 126.5 258.5 126.5 258.5C126.5 258.5 98.5 248 70 228C79.5 248 63 308.5 63 308.5C63 308.5 58.3333 262.333 57 238C44 263 26 268.5 26 268.5C26 268.5 39 234.5 51 222Z" fill="rgb(222,74,74)" fill-rule="evenodd" />
	<path id="vec" d="M51 222C38 233.5 11.5 234 11.5 234C11.5 234 27 213 46.5 211C51.7375 210.463 60 211 60 211C60 211 60 215 60 218C60 221 64 223 68 222.5C72 222 73.5 217.875 73.5 215C73.5 212.125 68 209 68 209C68 209 68.5 199.5 72.5 197C85.987 188.571 126.5 186 126.5 186C126.5 186 98.5 209 84 216C107 229 126.5 258.5 126.5 258.5C126.5 258.5 98.5 248 70 228C79.5 248 63 308.5 63 308.5C63 308.5 58.3333 262.333 57 238C44 263 26 268.5 26 268.5C26 268.5 39 234.5 51 222Z" fill="rgb(77,148,53)" fill-rule="evenodd" />
	<path id="vec" d="M48.5 47.5C58.125 49.75 84.5 24.5 84.5 24.5C84.5 24.5 66.625 35.25 57 33C47.375 30.75 59.5 17.5 48.5 17.5C37.5 17.5 38.875 45.25 48.5 47.5ZM32.5 80.5C40.75 82.375 57 59 57 59C57 59 50.75 64.875 42.5 63C34.25 61.125 35.6173 46.1738 30.5 49.5C20.5 56 24.25 78.625 32.5 80.5ZM58.5 77C66.5 80.5 75.5 73.5 89.5 59C115.508 58.9422 84.5 115.5 81 125.5C86 130.5 92 117.5 98 115.5C98 117.5 93 125.5 100 120C117 106.5 117 98 117 86.5C117 75 113.5 57.5 117 51.5C124.5 49 134.5 60.5 140 53C137.5 42.5 127.5 42.5 120 41C108.5 45.5 109 53.5 102 49.5C95 45.5 114 37 117 27.5C116.5 18.25 100 10 95 10C93 47.5 69 62 58.5 77ZM142.5 390C142.5 390 141 380 148 377C155 374 157 382.5 157 382.5C157 382.5 161 378.5 159.5 372C158 365.5 153.5 367 153.5 367L153.5 340.5C153.5 340.5 158 336 158 329.5C158 323 153.5 317.5 153.5 317.5L155.5 284C155.5 284 163 278.625 163 274C163 269.375 157 266 157 266L161.5 218C161.5 218 166.625 217 167.5 213C168.375 209 163.5 204 163.5 204C163.5 204 176.5 144.875 176 99.5C175.5 54.125 161.5 22.5 161.5 22.5C161.5 22.5 166.427 61.9292 163.927 106.929C161.427 151.929 151.5 202.5 151.5 202.5C151.5 202.5 146 208 146 211C146 214 149 216 149 216L146.5 266C146.5 266 139.5 268.5 139.5 274C139.5 279.5 144.5 282.5 144.5 282.5L142.5 317.5C142.5 317.5 136 322 136 329.5C136 337 140.5 340.5 140.5 340.5L140.5 367C140.5 367 134.5 372.875 134.5 379C134.5 385.125 142.5 390 142.5 390ZM98.5 379C106.5 375 107 392 109 395.5C110 392 108.5 384.5 114 383.5C119.5 382.5 119.5 399.5 122 390C124.5 380.5 122 346.5 122 346.5C122 346.5 127 341.25 126.5 337C126 332.75 120 329.5 120 329.5L115.5 306C115.5 306 118 296.875 115.5 291C113 285.125 105.5 282.5 105.5 282.5C105.5 282.5 95.1348 262.726 90 255.5C88 255.5 85.5 254.5 82.5 257C88.5 267 96 282.5 96 282.5C96 282.5 93.625 294 96 300.5C98.375 307 105.5 308.5 105.5 308.5L108 332.5C108 332.5 104.75 338.5 105.5 342.5C106.25 346.5 111.5 348.5 111.5 348.5L109 375L100.5 367C100.5 367 96.375 353.125 84 346.5C71.625 339.875 51 340.5 51 340.5C51 340.5 70.25 349.625 79.5 357.5C88.75 365.375 88 372 88 372C88 372 84.875 379.125 86 384.5C87.125 389.875 92.5 393.5 92.5 393.5C92.5 393.5 90.5 383 98.5 379ZM51 222C39 234.5 26 268.5 26 268.5C26 268.5 44 263 57 238C58.3333 262.333 63 308.5 63 308.5C63 308.5 79.5 248 70 228C98.5 248 126.5 258.5 126.5 258.5C126.5 258.5 107 229 84 216C98.5 209 126.5 186 126.5 186C126.5 186 85.987 188.571 72.5 197C68.5 199.5 68 209 68 209C68 209 73.5 212.125 73.5 215C73.5 217.875 72 222 68 222.5C64 223 60 221 60 218C60 215 60 211 60 211C60 211 51.7375 210.463 46.5 211C27 213 11.5 234 11.5 234C11.5 234 38 233.5 51 222ZM173 374C177 371.899 178.5 375 180.5 377C184.5 375 183.381 371.399 187.506 371.899C191.631 372.399 197 379 197 379C197 379 204 379.5 206 368C208 356.5 206.375 345.125 217 332.5C227.625 319.875 248.5 317.5 248.5 317.5C248.5 317.5 228.875 312.625 213.5 325C198.125 337.375 192 363.5 187 367C176 368 184.5 329.5 184.5 329.5C184.5 329.5 192.5 326.25 193.5 322C194.5 317.75 187 312.5 187 312.5L195.5 288C195.5 288 202.375 285.375 204 281C205.625 276.625 202 269.5 202 269.5C202 269.5 218.5 238 222 226.5C221 223.5 216 220 212.5 222C205.375 231.375 193.5 264 193.5 264C193.5 264 184.75 267.625 182.5 273C180.25 278.375 184.5 285.5 184.5 285.5L176 311.5C176 311.5 171 312.25 169.5 317.5C168 322.75 172 327 172 327L169.5 364.5C169.5 364.5 163.875 367.5 164.5 372C165.125 376.5 172 382.5 172 382.5C172 382.5 169 376.101 173 374ZM236.5 279C236.5 279 250 222 246.5 197C258.5 209 280 216 280 216C280 216 271.5 193 252 182C265 175.5 283.5 158.5 283.5 158.5C283.5 158.5 258.25 161.125 246.5 165C234.75 168.875 234 177 239.5 177C245 177 247 181.25 247.5 186C248 190.75 243.5 193 238.5 193C233.5 193 231 189 231 185C231 181 225.375 172.625 213.5 177C201.625 181.375 180.5 199.5 180.5 199.5C180.5 199.5 199 192 209 189C198.5 199.5 197 228 197 228C197 228 213.5 205.5 228 197C226.5 224 236.5 279 236.5 279Z" fill-rule="evenodd" stroke="rgb(0,0,0)" stroke-opacity="0" stroke-width="1.000000" />
	<path id="vec" d="M173 374C169 376.101 172 382.5 172 382.5C172 382.5 165.125 376.5 164.5 372C163.875 367.5 169.5 364.5 169.5 364.5L172 327C172 327 168 322.75 169.5 317.5C171 312.25 176 311.5 176 311.5L184.5 285.5C184.5 285.5 180.25 278.375 182.5 273C184.75 267.625 193.5 264 193.5 264C193.5 264 205.375 231.375 212.5 222C216 220 221 223.5 222 226.5C218.5 238 202 269.5 202 269.5C202 269.5 205.625 276.625 204 281C202.375 285.375 195.5 288 195.5 288L187 312.5C187 312.5 194.5 317.75 193.5 322C192.5 326.25 184.5 329.5 184.5 329.5C184.5 329.5 176 368 187 367C192 363.5 198.125 337.375 213.5 325C228.875 312.625 248.5 317.5 248.5 317.5C248.5 317.5 227.625 319.875 217 332.5C206.375 345.125 208 356.5 206 368C204 379.5 197 379 197 379C197 379 191.631 372.399 187.506 371.899C183.381 371.399 184.5 375 180.5 377C178.5 375 177 371.899 173 374Z" fill="rgb(222,74,74)" fill-rule="evenodd" />
	<path id="vec" d="M173 374C169 376.101 172 382.5 172 382.5C172 382.5 165.125 376.5 164.5 372C163.875 367.5 169.5 364.5 169.5 364.5L172 327C172 327 168 322.75 169.5 317.5C171 312.25 176 311.5 176 311.5L184.5 285.5C184.5 285.5 180.25 278.375 182.5 273C184.75 267.625 193.5 264 193.5 264C193.5 264 205.375 231.375 212.5 222C216 220 221 223.5 222 226.5C218.5 238 202 269.5 202 269.5C202 269.5 205.625 276.625 204 281C202.375 285.375 195.5 288 195.5 288L187 312.5C187 312.5 194.5 317.75 193.5 322C192.5 326.25 184.5 329.5 184.5 329.5C184.5 329.5 176 368 187 367C192 363.5 198.125 337.375 213.5 325C228.875 312.625 248.5 317.5 248.5 317.5C248.5 317.5 227.625 319.875 217 332.5C206.375 345.125 208 356.5 206 368C204 379.5 197 379 197 379C197 379 191.631 372.399 187.506 371.899C183.381 371.399 184.5 375 180.5 377C178.5 375 177 371.899 173 374Z" fill="rgb(77,148,53)" fill-rule="evenodd" />
	<path id="vec" d="M48.5 47.5C58.125 49.75 84.5 24.5 84.5 24.5C84.5 24.5 66.625 35.25 57 33C47.375 30.75 59.5 17.5 48.5 17.5C37.5 17.5 38.875 45.25 48.5 47.5ZM32.5 80.5C40.75 82.375 57 59 57 59C57 59 50.75 64.875 42.5 63C34.25 61.125 35.6173 46.1738 30.5 49.5C20.5 56 24.25 78.625 32.5 80.5ZM58.5 77C66.5 80.5 75.5 73.5 89.5 59C115.508 58.9422 84.5 115.5 81 125.5C86 130.5 92 117.5 98 115.5C98 117.5 93 125.5 100 120C117 106.5 117 98 117 86.5C117 75 113.5 57.5 117 51.5C124.5 49 134.5 60.5 140 53C137.5 42.5 127.5 42.5 120 41C108.5 45.5 109 53.5 102 49.5C95 45.5 114 37 117 27.5C116.5 18.25 100 10 95 10C93 47.5 69 62 58.5 77ZM142.5 390C142.5 390 141 380 148 377C155 374 157 382.5 157 382.5C157 382.5 161 378.5 159.5 372C158 365.5 153.5 367 153.5 367L153.5 340.5C153.5 340.5 158 336 158 329.5C158 323 153.5 317.5 153.5 317.5L155.5 284C155.5 284 163 278.625 163 274C163 269.375 157 266 157 266L161.5 218C161.5 218 166.625 217 167.5 213C168.375 209 163.5 204 163.5 204C163.5 204 176.5 144.875 176 99.5C175.5 54.125 161.5 22.5 161.5 22.5C161.5 22.5 166.427 61.9292 163.927 106.929C161.427 151.929 151.5 202.5 151.5 202.5C151.5 202.5 146 208 146 211C146 214 149 216 149 216L146.5 266C146.5 266 139.5 268.5 139.5 274C139.5 279.5 144.5 282.5 144.5 282.5L142.5 317.5C142.5 317.5 136 322 136 329.5C136 337 140.5 340.5 140.5 340.5L140.5 367C140.5 367 134.5 372.875 134.5 379C134.5 385.125 142.5 390 142.5 390ZM98.5 379C106.5 375 107 392 109 395.5C110 392 108.5 384.5 114 383.5C119.5 382.5 119.5 399.5 122 390C124.5 380.5 122 346.5 122 346.5C122 346.5 127 341.25 126.5 337C126 332.75 120 329.5 120 329.5L115.5 306C115.5 306 118 296.875 115.5 291C113 285.125 105.5 282.5 105.5 282.5C105.5 282.5 95.1348 262.726 90 255.5C88 255.5 85.5 254.5 82.5 257C88.5 267 96 282.5 96 282.5C96 282.5 93.625 294 96 300.5C98.375 307 105.5 308.5 105.5 308.5L108 332.5C108 332.5 104.75 338.5 105.5 342.5C106.25 346.5 111.5 348.5 111.5 348.5L109 375L100.5 367C100.5 367 96.375 353.125 84 346.5C71.625 339.875 51 340.5 51 340.5C51 340.5 70.25 349.625 79.5 357.5C88.75 365.375 88 372 88 372C88 372 84.875 379.125 86 384.5C87.125 389.875 92.5 393.5 92.5 393.5C92.5 393.5 90.5 383 98.5 379ZM51 222C39 234.5 26 268.5 26 268.5C26 268.5 44 263 57 238C58.3333 262.333 63 308.5 63 308.5C63 308.5 79.5 248 70 228C98.5 248 126.5 258.5 126.5 258.5C126.5 258.5 107 229 84 216C98.5 209 126.5 186 126.5 186C126.5 186 85.987 188.571 72.5 197C68.5 199.5 68 209 68 209C68 209 73.5 212.125 73.5 215C73.5 217.875 72 222 68 222.5C64 223 60 221 60 218C60 215 60 211 60 211C60 211 51.7375 210.463 46.5 211C27 213 11.5 234 11.5 234C11.5 234 38 233.5 51 222ZM173 374C177 371.899 178.5 375 180.5 377C184.5 375 183.381 371.399 187.506 371.899C191.631 372.399 197 379 197 379C197 379 204 379.5 206 368C208 356.5 206.375 345.125 217 332.5C227.625 319.875 248.5 317.5 248.5 317.5C248.5 317.5 228.875 312.625 213.5 325C198.125 337.375 192 363.5 187 367C176 368 184.5 329.5 184.5 329.5C184.5 329.5 192.5 326.25 193.5 322C194.5 317.75 187 312.5 187 312.5L195.5 288C195.5 288 202.375 285.375 204 281C205.625 276.625 202 269.5 202 269.5C202 269.5 218.5 238 222 226.5C221 223.5 216 220 212.5 222C205.375 231.375 193.5 264 193.5 264C193.5 264 184.75 267.625 182.5 273C180.25 278.375 184.5 285.5 184.5 285.5L176 311.5C176 311.5 171 312.25 169.5 317.5C168 322.75 172 327 172 327L169.5 364.5C169.5 364.5 163.875 367.5 164.5 372C165.125 376.5 172 382.5 172 382.5C172 382.5 169 376.101 173 374ZM236.5 279C236.5 279 250 222 246.5 197C258.5 209 280 216 280 216C280 216 271.5 193 252 182C265 175.5 283.5 158.5 283.5 158.5C283.5 158.5 258.25 161.125 246.5 165C234.75 168.875 234 177 239.5 177C245 177 247 181.25 247.5 186C248 190.75 243.5 193 238.5 193C233.5 193 231 189 231 185C231 181 225.375 172.625 213.5 177C201.625 181.375 180.5 199.5 180.5 199.5C180.5 199.5 199 192 209 189C198.5 199.5 197 228 197 228C197 228 213.5 205.5 228 197C226.5 224 236.5 279 236.5 279Z" fill-rule="evenodd" stroke="rgb(0,0,0)" stroke-opacity="0" stroke-width="1.000000" />
	<path id="vec" d="M236.5 279C236.5 279 226.5 224 228 197C213.5 205.5 197 228 197 228C197 228 198.5 199.5 209 189C199 192 180.5 199.5 180.5 199.5C180.5 199.5 201.625 181.375 213.5 177C225.375 172.625 231 181 231 185C231 189 233.5 193 238.5 193C243.5 193 248 190.75 247.5 186C247 181.25 245 177 239.5 177C234 177 234.75 168.875 246.5 165C258.25 161.125 283.5 158.5 283.5 158.5C283.5 158.5 265 175.5 252 182C271.5 193 280 216 280 216C280 216 258.5 209 246.5 197C250 222 236.5 279 236.5 279Z" fill="rgb(222,74,74)" fill-rule="evenodd" />
	<path id="vec" d="M236.5 279C236.5 279 226.5 224 228 197C213.5 205.5 197 228 197 228C197 228 198.5 199.5 209 189C199 192 180.5 199.5 180.5 199.5C180.5 199.5 201.625 181.375 213.5 177C225.375 172.625 231 181 231 185C231 189 233.5 193 238.5 193C243.5 193 248 190.75 247.5 186C247 181.25 245 177 239.5 177C234 177 234.75 168.875 246.5 165C258.25 161.125 283.5 158.5 283.5 158.5C283.5 158.5 265 175.5 252 182C271.5 193 280 216 280 216C280 216 258.5 209 246.5 197C250 222 236.5 279 236.5 279Z" fill="rgb(77,148,53)" fill-rule="evenodd" />
	<path id="vec" d="M48.5 47.5C58.125 49.75 84.5 24.5 84.5 24.5C84.5 24.5 66.625 35.25 57 33C47.375 30.75 59.5 17.5 48.5 17.5C37.5 17.5 38.875 45.25 48.5 47.5ZM32.5 80.5C40.75 82.375 57 59 57 59C57 59 50.75 64.875 42.5 63C34.25 61.125 35.6173 46.1738 30.5 49.5C20.5 56 24.25 78.625 32.5 80.5ZM58.5 77C66.5 80.5 75.5 73.5 89.5 59C115.508 58.9422 84.5 115.5 81 125.5C86 130.5 92 117.5 98 115.5C98 117.5 93 125.5 100 120C117 106.5 117 98 117 86.5C117 75 113.5 57.5 117 51.5C124.5 49 134.5 60.5 140 53C137.5 42.5 127.5 42.5 120 41C108.5 45.5 109 53.5 102 49.5C95 45.5 114 37 117 27.5C116.5 18.25 100 10 95 10C93 47.5 69 62 58.5 77ZM142.5 390C142.5 390 141 380 148 377C155 374 157 382.5 157 382.5C157 382.5 161 378.5 159.5 372C158 365.5 153.5 367 153.5 367L153.5 340.5C153.5 340.5 158 336 158 329.5C158 323 153.5 317.5 153.5 317.5L155.5 284C155.5 284 163 278.625 163 274C163 269.375 157 266 157 266L161.5 218C161.5 218 166.625 217 167.5 213C168.375 209 163.5 204 163.5 204C163.5 204 176.5 144.875 176 99.5C175.5 54.125 161.5 22.5 161.5 22.5C161.5 22.5 166.427 61.9292 163.927 106.929C161.427 151.929 151.5 202.5 151.5 202.5C151.5 202.5 146 208 146 211C146 214 149 216 149 216L146.5 266C146.5 266 139.5 268.5 139.5 274C139.5 279.5 144.5 282.5 144.5 282.5L142.5 317.5C142.5 317.5 136 322 136 329.5C136 337 140.5 340.5 140.5 340.5L140.5 367C140.5 367 134.5 372.875 134.5 379C134.5 385.125 142.5 390 142.5 390ZM98.5 379C106.5 375 107 392 109 395.5C110 392 108.5 384.5 114 383.5C119.5 382.5 119.5 399.5 122 390C124.5 380.5 122 346.5 122 346.5C122 346.5 127 341.25 126.5 337C126 332.75 120 329.5 120 329.5L115.5 306C115.5 306 118 296.875 115.5 291C113 285.125 105.5 282.5 105.5 282.5C105.5 282.5 95.1348 262.726 90 255.5C88 255.5 85.5 254.5 82.5 257C88.5 267 96 282.5 96 282.5C96 282.5 93.625 294 96 300.5C98.375 307 105.5 308.5 105.5 308.5L108 332.5C108 332.5 104.75 338.5 105.5 342.5C106.25 346.5 111.5 348.5 111.5 348.5L109 375L100.5 367C100.5 367 96.375 353.125 84 346.5C71.625 339.875 51 340.5 51 340.5C51 340.5 70.25 349.625 79.5 357.5C88.75 365.375 88 372 88 372C88 372 84.875 379.125 86 384.5C87.125 389.875 92.5 393.5 92.5 393.5C92.5 393.5 90.5 383 98.5 379ZM51 222C39 234.5 26 268.5 26 268.5C26 268.5 44 263 57 238C58.3333 262.333 63 308.5 63 308.5C63 308.5 79.5 248 70 228C98.5 248 126.5 258.5 126.5 258.5C126.5 258.5 107 229 84 216C98.5 209 126.5 186 126.5 186C126.5 186 85.987 188.571 72.5 197C68.5 199.5 68 209 68 209C68 209 73.5 212.125 73.5 215C73.5 217.875 72 222 68 222.5C64 223 60 221 60 218C60 215 60 211 60 211C60 211 51.7375 210.463 46.5 211C27 213 11.5 234 11.5 234C11.5 234 38 233.5 51 222ZM173 374C177 371.899 178.5 375 180.5 377C184.5 375 183.381 371.399 187.506 371.899C191.631 372.399 197 379 197 379C197 379 204 379.5 206 368C208 356.5 206.375 345.125 217 332.5C227.625 319.875 248.5 317.5 248.5 317.5C248.5 317.5 228.875 312.625 213.5 325C198.125 337.375 192 363.5 187 367C176 368 184.5 329.5 184.5 329.5C184.5 329.5 192.5 326.25 193.5 322C194.5 317.75 187 312.5 187 312.5L195.5 288C195.5 288 202.375 285.375 204 281C205.625 276.625 202 269.5 202 269.5C202 269.5 218.5 238 222 226.5C221 223.5 216 220 212.5 222C205.375 231.375 193.5 264 193.5 264C193.5 264 184.75 267.625 182.5 273C180.25 278.375 184.5 285.5 184.5 285.5L176 311.5C176 311.5 171 312.25 169.5 317.5C168 322.75 172 327 172 327L169.5 364.5C169.5 364.5 163.875 367.5 164.5 372C165.125 376.5 172 382.5 172 382.5C172 382.5 169 376.101 173 374ZM236.5 279C236.5 279 250 222 246.5 197C258.5 209 280 216 280 216C280 216 271.5 193 252 182C265 175.5 283.5 158.5 283.5 158.5C283.5 158.5 258.25 161.125 246.5 165C234.75 168.875 234 177 239.5 177C245 177 247 181.25 247.5 186C248 190.75 243.5 193 238.5 193C233.5 193 231 189 231 185C231 181 225.375 172.625 213.5 177C201.625 181.375 180.5 199.5 180.5 199.5C180.5 199.5 199 192 209 189C198.5 199.5 197 228 197 228C197 228 213.5 205.5 228 197C226.5 224 236.5 279 236.5 279Z" fill-rule="evenodd" stroke="rgb(0,0,0)" stroke-opacity="0" stroke-width="1.000000" />
</svg>
